<svg width="31" height="31" viewBox="0 0 31 31" fill="none" xmlns="http://www.w3.org/2000/svg">
<path fill-rule="evenodd" clip-rule="evenodd" d="M21.1337 0.0197322C23.018 -0.00657741 24.9155 -0.00657741 26.7998 0.0197322C29.1849 0.0591967 30.9638 1.8351 30.9901 4.20296C31.0033 6.0841 31.0033 7.9784 30.9901 9.85954C30.9506 12.2274 29.1717 14.0165 26.7998 14.0428C24.9155 14.0691 23.018 14.0691 21.1337 14.0428C18.7618 14.0033 16.9829 12.2274 16.9434 9.85954C16.9346 9.22859 16.9375 8.60349 16.9404 7.97644C16.9419 7.66219 16.9434 7.34746 16.9434 7.03125C16.9434 6.71505 16.9419 6.40031 16.9404 6.08606C16.9375 5.45901 16.9346 4.83391 16.9434 4.20296C16.9961 1.82194 18.7618 0.0460419 21.1337 0.0197322ZM18.943 4.23997C18.9755 2.91989 19.8863 2.03369 21.1558 2.01961L21.1616 2.01955V2.01954C23.0263 1.9935 24.9042 1.99349 26.7689 2.0195C28.0819 2.04223 28.9744 2.9525 28.9902 4.22164C29.0033 6.08825 29.0033 7.96792 28.9902 9.83456C28.9648 11.1265 28.0525 12.0287 26.7776 12.0429L26.7719 12.043C24.9072 12.069 23.0293 12.069 21.1646 12.043C19.8702 12.0204 18.9657 11.1128 18.9431 9.82852C18.9346 9.21637 18.9374 8.62498 18.9403 8.01109C18.9418 7.69255 18.9434 7.36795 18.9434 7.03125C18.9434 6.69455 18.9418 6.36995 18.9403 6.05141C18.9374 5.43952 18.9347 4.84998 18.943 4.23997Z" fill="#3C3C4C"/>
<path fill-rule="evenodd" clip-rule="evenodd" d="M5.13367 0.0197322C7.01799 -0.00657741 8.91549 -0.00657741 10.7998 0.0197322C13.1849 0.0591967 14.9638 1.8351 14.9901 4.20296C15.0033 6.0841 15.0033 7.9784 14.9901 9.85954C14.9506 12.2274 13.1717 14.0165 10.7998 14.0428C8.91549 14.0691 7.01799 14.0691 5.13367 14.0428C2.76179 14.0033 0.982887 12.2274 0.943357 9.85954C0.934579 9.22859 0.937495 8.60349 0.940421 7.97644C0.941888 7.66219 0.943357 7.34746 0.943357 7.03125C0.943357 6.71505 0.941888 6.40031 0.940421 6.08606C0.937495 5.45901 0.934579 4.83391 0.943357 4.20296C0.996065 1.82194 2.76179 0.0460419 5.13367 0.0197322ZM2.94304 4.23997C2.97551 2.91989 3.88632 2.03369 5.15585 2.01961L5.16159 2.01955V2.01954C7.02631 1.9935 8.90419 1.99349 10.7689 2.0195C12.0819 2.04223 12.9744 2.9525 12.9902 4.22164C13.0033 6.08825 13.0033 7.96792 12.9902 9.83456C12.9648 11.1265 12.0525 12.0287 10.7776 12.0429L10.7719 12.043C8.90717 12.069 7.0293 12.069 5.16457 12.043C3.8702 12.0204 2.96565 11.1128 2.94312 9.82852C2.93464 9.21637 2.93743 8.62498 2.94032 8.01109C2.94183 7.69255 2.94336 7.36795 2.94336 7.03125C2.94336 6.69455 2.94183 6.36995 2.94032 6.05141C2.93744 5.43952 2.93466 4.84998 2.94304 4.23997Z" fill="#3C3C4C"/>
<path fill-rule="evenodd" clip-rule="evenodd" d="M26.8717 16.0296C29.1766 16.0691 30.9415 17.8327 30.9941 20.1358C31.0029 20.7671 31 21.3925 30.9971 22.0198C30.9956 22.3342 30.9941 22.6491 30.9941 22.9654C30.9941 23.2945 30.9956 23.6235 30.9971 23.9525C31 24.6106 31.0029 25.2686 30.9941 25.9267C30.9283 28.2167 29.1634 29.9934 26.8717 30.0329C24.9355 30.0724 23.0126 30.0724 21.0765 30.0329C18.7847 29.9934 17.0066 28.2298 16.9671 25.9267C16.9276 23.992 16.9276 22.0705 16.9671 20.1358C17.0066 17.8458 18.7715 16.0691 21.0765 16.0296C23.0126 15.9901 24.9355 15.9901 26.8717 16.0296ZM28.9946 25.8825C28.9527 27.1172 28.0362 28.0125 26.8372 28.0332L26.8309 28.0333C24.9219 28.0722 23.0262 28.0722 21.1172 28.0333L21.1109 28.0332C19.8911 28.0122 18.9878 27.1122 18.9668 25.8924L18.9667 25.8858C18.9278 23.9784 18.9278 22.0841 18.9667 20.1767L18.9668 20.1703L18.9668 20.1703C18.9878 18.955 19.8864 18.0503 21.1107 18.0293L21.1172 18.0292L21.1172 18.0292C23.0262 17.9903 24.9219 17.9903 26.8309 18.0292L26.8374 18.0293C28.0614 18.0503 28.9626 18.9427 28.9945 20.1738C29.0028 20.7838 29.0001 21.3733 28.9972 21.9852C28.9957 22.3039 28.9941 22.6286 28.9941 22.9654C28.9941 23.314 28.9957 23.6525 28.9972 23.9857C29 24.6264 29.0028 25.2475 28.9946 25.8825Z" fill="#3C3C4C"/>
<path fill-rule="evenodd" clip-rule="evenodd" d="M2.94034 23.9956C2.94184 23.6694 2.94336 23.3382 2.94336 22.9983C2.94336 22.6612 2.94183 22.3347 2.94032 22.0143C2.93744 21.3995 2.93466 20.8072 2.94301 20.2058C2.97483 18.9404 3.88343 18.0418 5.12625 18.0195C7.01661 17.9935 8.90697 17.9935 10.7973 18.0195C12.0516 18.042 12.958 18.9501 12.9805 20.1986C13.0065 22.087 13.0065 23.9755 12.9805 25.8639C12.958 27.1123 12.0517 28.0204 10.7975 28.043C8.90702 28.069 7.01658 28.069 5.12614 28.043C3.88367 28.0206 2.97526 27.1225 2.94303 25.8576C2.93464 25.2372 2.93745 24.6256 2.94034 23.9956ZM0.943357 25.8951C0.996078 28.2257 2.76222 30.0032 5.09511 30.0427C7.00623 30.0691 8.91736 30.0691 10.8285 30.0427C13.1614 30.0032 14.9407 28.2257 14.9802 25.8951C15.0066 23.9859 15.0066 22.0766 14.9802 20.1674C14.9407 17.8368 13.1614 16.0593 10.8285 16.0198C8.91736 15.9934 7.00623 15.9934 5.09511 16.0198C2.76222 16.0593 0.996078 17.8368 0.943357 20.1674C0.934577 20.7902 0.937495 21.4188 0.940422 22.0493C0.941889 22.3653 0.943357 22.6818 0.943357 22.9983C0.943357 23.3182 0.941897 23.6396 0.940435 23.9615C0.937504 24.6067 0.934564 25.2538 0.943357 25.8951Z" fill="#3C3C4C"/>
</svg>
