<svg width="38" height="31" viewBox="0 0 38 31" fill="none" xmlns="http://www.w3.org/2000/svg">
<path d="M32.498 17.8535C32.498 17.8066 32.498 17.7598 32.4746 17.7129L18.998 6.60351L5.52148 17.7129C5.52148 17.7598 5.49805 17.8066 5.49805 17.8535V29.1035C5.49805 29.9238 6.17773 30.6035 6.99805 30.6035H15.998V21.6035H21.998V30.6035H30.998C31.8184 30.6035 32.498 29.9238 32.498 29.1035V17.8535ZM37.7246 16.2363C37.9824 15.9316 37.9355 15.4395 37.6309 15.1816L32.498 10.916V1.35351C32.498 0.93164 32.1699 0.603515 31.748 0.603515H27.248C26.8262 0.603515 26.498 0.93164 26.498 1.35351V5.92383L20.7793 1.14258C19.7949 0.322263 18.2012 0.322263 17.2168 1.14258L0.365234 15.1816C0.0605469 15.4395 0.0136719 15.9316 0.271484 16.2363L1.72461 17.9707C1.8418 18.1113 2.0293 18.2051 2.2168 18.2285C2.42773 18.252 2.61523 18.1816 2.7793 18.0645L18.998 4.54101L35.2168 18.0645C35.3574 18.1816 35.5215 18.2285 35.709 18.2285C35.7324 18.2285 35.7559 18.2285 35.7793 18.2285C35.9668 18.2051 36.1543 18.1113 36.2715 17.9707L37.7246 16.2363Z" fill="#3C3C4C"/>
</svg>
