<svg width="35" height="34" viewBox="0 0 35 34" fill="none" xmlns="http://www.w3.org/2000/svg">
<path d="M12.629 8.8867C12.8094 7.76172 13.664 7.39319 14.6801 7.20893C14.9744 7.16044 15.2688 7.10225 15.5632 7.05376C16.1519 6.94708 16.3608 6.45247 15.981 5.99666C15.0029 4.78439 14.9744 3.42665 15.4207 2.02042C15.7246 1.07001 16.4653 0.594799 17.5098 0.585101C18.5543 0.575403 19.333 1.07001 19.6369 2.03012C20.0737 3.41696 20.0452 4.765 19.0861 5.96756C18.6873 6.46217 18.8772 6.94708 19.5039 7.05376C19.7413 7.09255 19.9787 7.11194 20.2066 7.17013C21.4316 7.47077 21.9728 7.48047 22.4666 8.877C23.1598 8.72183 23.853 8.55697 24.5367 8.41149C25.135 8.29512 25.3154 7.849 24.9355 7.3641C24.005 6.16153 23.986 4.82318 24.4987 3.47514C24.8501 2.55382 25.6287 2.27258 26.5403 2.30167C27.414 2.33076 28.0977 2.70899 28.3825 3.56243C28.8383 4.89107 28.8193 6.19062 27.9077 7.3641C27.5184 7.8684 27.6798 8.28542 28.2971 8.41149C28.7814 8.50848 29.2656 8.59576 29.7309 8.72183C30.5286 8.92549 31.0129 9.47829 31.0698 10.2929C31.1838 11.9319 31.2408 13.5806 31.2883 15.2293C31.2977 15.4329 31.1173 15.6851 30.9559 15.8403C30.6235 16.1603 30.2437 16.4222 29.8734 16.7034C29.5695 16.9362 29.3036 16.8295 29.2466 16.4318C29.1802 15.9663 29.1517 15.5008 29.0472 15.045C29.0093 14.8898 28.8383 14.6765 28.6959 14.6474C27.1861 14.2983 25.6667 14.2692 24.1379 14.628C23.853 14.6959 23.7391 14.8317 23.7106 15.1032C23.6916 15.2972 23.6156 15.4911 23.6346 15.6754C23.7676 16.8198 22.9129 17.0137 22.1628 17.3047C22.0583 17.3435 21.8874 17.2756 21.7829 17.2174C19.1241 15.6463 16.3988 15.5202 13.702 17.004C12.8474 17.4792 12.3156 17.0622 11.6794 16.7519C11.5559 16.6937 11.5084 16.4318 11.4705 16.2573C11.3945 15.85 11.3755 15.4232 11.2805 15.0159C11.2521 14.8704 11.0811 14.6862 10.9482 14.6571C9.41937 14.2886 7.87155 14.2886 6.34272 14.6571C6.20978 14.6862 6.03885 14.8704 6.01036 15.0159C5.90591 15.4911 5.87742 15.976 5.78246 16.4512C5.697 16.8877 5.51658 16.9459 5.17473 16.6937C4.95633 16.5385 4.75691 16.3252 4.51952 16.2088C3.80733 15.8597 3.66489 15.2681 3.71237 14.5407C3.80733 13.1733 3.84532 11.7961 3.94977 10.4287C4.01624 9.47829 4.54801 8.8867 5.45961 8.68304C5.87742 8.58606 6.29524 8.50848 6.71306 8.43089C7.35877 8.30481 7.5202 7.88779 7.12138 7.3641C6.19078 6.13243 6.18129 4.79409 6.72255 3.42665C7.0549 2.58292 7.79558 2.30167 8.6597 2.31137C9.50483 2.32107 10.2075 2.63141 10.5304 3.46545C11.0526 4.82318 11.0432 6.14213 10.1221 7.3641C9.71374 7.90719 9.90365 8.32421 10.5684 8.45029C11.2426 8.53757 11.8978 8.71214 12.629 8.8867Z" fill="#3C3C4C"/>
<path d="M10.4733 28.7298C10.9576 29.3408 11.4134 29.913 11.9071 30.524C11.5653 30.6694 11.2234 30.8634 10.8626 30.9604C10.5397 31.0476 10.4448 31.2416 10.4068 31.5423C10.3688 31.9302 10.3308 32.3181 10.2454 32.6866C10.2074 32.8224 10.027 33.0261 9.91302 33.0261C9.06789 33.0552 8.21327 33.0552 7.35864 33.0261C7.24469 33.0261 7.08327 32.8321 7.05478 32.706C6.96932 32.2987 6.94083 31.872 6.87436 31.4647C6.79839 30.9798 5.38351 30.3785 4.99418 30.6597C4.59536 30.9604 4.20603 31.261 3.77872 31.581C2.9241 31.0477 2.2404 30.3203 1.66115 29.4863C1.60418 29.4087 1.64216 29.2147 1.70863 29.1177C1.92703 28.7783 2.15493 28.4486 2.42082 28.1479C2.64872 27.8861 2.6772 27.6533 2.47779 27.3818C2.43981 27.3333 2.41132 27.2654 2.40182 27.2072C2.26888 26.2665 1.63266 26.0434 0.825518 26.0337C0.626106 26.0337 0.417197 25.9755 0.179802 25.9367C-0.000618823 24.9572 -0.0196105 23.9874 0.151314 23.0079C0.170306 22.9012 0.303248 22.8042 0.398206 22.7364C0.455181 22.6976 0.550139 22.6782 0.626105 22.6879C1.7846 22.8139 2.31636 22.1351 2.57275 21.1071C2.60124 20.981 2.58225 20.7967 2.50628 20.6803C2.30687 20.37 2.10745 20.05 1.85107 19.7881C1.52821 19.4584 1.57569 19.1965 1.87006 18.8959C2.4683 18.2849 3.06653 17.6642 3.66477 17.0436C4.14906 17.4121 4.54788 17.6933 4.92771 18.0037C5.14612 18.1782 5.34553 18.2752 5.60192 18.0813C5.68738 18.0134 5.79183 17.9552 5.89629 17.9358C6.7794 17.8194 6.94083 17.1987 6.9978 16.4326C7.05478 15.55 6.91234 15.6858 7.84293 15.5888C8.45066 15.5306 9.07739 15.6082 9.68512 15.6179C10.065 15.6276 10.2359 15.8022 10.2644 16.1998C10.3024 16.6653 10.3973 17.1211 10.4638 17.5769C10.9386 17.7709 11.4039 17.9649 11.8882 18.1685C11.3944 18.7892 10.9291 19.3711 10.4353 19.9918C9.2768 19.5069 8.07083 19.4778 6.87436 19.9724C5.97225 20.3506 5.26007 20.9713 4.7283 21.815C3.72174 23.4055 3.76922 25.5488 4.85175 27.0617C6.17167 28.8947 7.98537 29.4281 10.4733 28.7298Z" fill="#3C3C4C"/>
<path d="M24.5843 19.9826C24.119 19.3911 23.6537 18.8092 23.1599 18.1885C23.5017 18.043 23.8246 17.8879 24.1664 17.7715C24.4798 17.6745 24.6317 17.4999 24.6507 17.1605C24.6792 16.7726 24.7267 16.3846 24.8122 16.0161C24.8501 15.8803 25.0306 15.6767 25.1445 15.667C25.9801 15.6379 26.8158 15.6476 27.6514 15.6767C27.7749 15.6864 27.8983 15.89 28.0028 16.0161C28.0407 16.0549 28.0407 16.1422 28.0502 16.2004C28.1357 16.6756 28.0787 17.2478 28.3351 17.5872C28.582 17.9072 29.1423 17.9848 29.5696 18.1303C29.7025 18.1788 29.9114 18.1497 30.0254 18.0624C30.3767 17.82 30.6996 17.529 31.0604 17.2963C31.1744 17.2187 31.4402 17.209 31.5257 17.2866C32.1429 17.8782 32.7507 18.4988 33.3299 19.1292C33.4059 19.2068 33.3489 19.4299 33.3394 19.5753C33.3299 19.6335 33.2634 19.682 33.2255 19.7305C32.3518 20.904 32.3424 20.904 32.9501 22.252C32.9976 22.3684 33.159 22.4751 33.2919 22.5042C33.6433 22.5817 34.0136 22.6302 34.3745 22.6593C34.7353 22.6884 34.9632 22.8048 34.9632 23.2218C34.9537 24.1044 34.9632 24.9869 34.9632 25.9179C34.3934 25.9955 33.8997 26.0828 33.3964 26.141C33.1305 26.1701 32.9501 26.267 32.9026 26.558C32.8931 26.6356 32.8646 26.7229 32.8266 26.781C32.2759 27.5472 32.5513 28.1679 33.1115 28.7886C33.5768 29.3026 33.5578 29.3607 33.0925 29.8844C32.5513 30.4857 31.9625 31.0385 31.3738 31.6301C30.918 31.281 30.5381 30.99 30.1583 30.7088C30.0823 30.6506 30.0159 30.5827 29.9304 30.5342C29.6645 30.379 28.2591 31.0676 28.2022 31.3877C28.1452 31.7368 28.0882 32.0859 28.0597 32.4447C28.0407 32.8424 27.9078 33.0848 27.471 33.0751C26.7018 33.0557 25.9232 33.0654 25.154 33.0266C25.0306 33.0169 24.8501 32.823 24.8122 32.6872C24.7172 32.2799 24.7172 31.8532 24.6127 31.4458C24.5653 31.2713 24.4038 31.0773 24.2424 30.99C23.9006 30.7961 23.5207 30.67 23.1504 30.5148C23.6442 29.8941 24.1095 29.3123 24.5843 28.7207C27.2431 29.3898 29.0473 28.8273 30.2913 26.9168C31.3263 25.3263 31.2788 23.1733 30.1583 21.5828C28.9049 19.8178 27.0342 19.2747 24.5843 19.9826Z" fill="#3C3C4C"/>
<path d="M24.4608 24.3656C24.4608 28.2739 21.3272 31.4549 17.5099 31.4452C13.6736 31.4355 10.5969 28.2642 10.5874 24.3268C10.5779 20.4669 13.6926 17.2568 17.4434 17.2568C21.3747 17.2665 24.4703 20.399 24.4608 24.3656ZM22.7706 24.3656C22.7801 21.4076 20.4156 18.9831 17.5289 18.9928C14.6611 18.9928 12.2967 21.3882 12.2872 24.3171C12.2777 27.2847 14.6137 29.7092 17.5004 29.7189C20.3966 29.7286 22.7611 27.3235 22.7706 24.3656Z" fill="#3C3C4C"/>
<path d="M9.552 22.3388C9.28611 23.6092 9.23864 24.87 9.50452 26.1405C9.52351 26.2374 9.33359 26.4605 9.21015 26.4993C8.08015 26.8387 6.85518 26.1114 6.54182 24.9476C6.21896 23.7256 6.92165 22.4746 8.11813 22.1739C8.61191 22.0575 9.0867 22.0866 9.552 22.3388Z" fill="#3C3C4C"/>
<path d="M25.562 26.3823C25.619 25.6647 25.7139 24.9955 25.7139 24.3166C25.7139 23.6572 25.619 23.0074 25.562 22.3285C26.4071 21.7951 27.5561 22.2606 28.0594 22.8619C28.7526 23.6863 28.7906 24.85 28.1354 25.7132C27.5182 26.5375 26.4451 26.8091 25.562 26.3823Z" fill="#3C3C4C"/>
<path d="M17.6234 25.3548C16.8922 25.3645 16.4649 24.7923 16.5599 24.1135C16.5978 23.8904 16.5599 23.6188 16.4649 23.4055C16.1041 22.6199 15.6957 21.8538 15.3444 21.0585C15.2115 20.7482 14.9551 20.3215 15.3349 20.0693C15.4299 20.0111 15.9331 20.3991 16.1136 20.6803C16.5694 21.4077 16.9492 22.1932 17.3575 22.9594C17.6329 23.4734 17.9083 23.551 18.4305 23.2794C18.9243 23.0273 19.4181 22.7751 19.9404 22.5908C20.1398 22.523 20.4057 22.6393 20.6431 22.6684C20.5386 22.8818 20.4816 23.1727 20.3107 23.2988C19.8549 23.6382 19.3421 23.8904 18.8674 24.2104C18.6964 24.3268 18.5445 24.5014 18.459 24.6856C18.2691 25.1124 17.9747 25.316 17.6234 25.3548Z" fill="#3C3C4C"/>
</svg>
