<svg width="21" height="23" viewBox="0 0 21 23" fill="none" xmlns="http://www.w3.org/2000/svg">
<g clip-path="url(#clip0_1426_1412)">
<path d="M16.6477 0C17.4742 0.332422 18.184 0.790625 18.4984 1.68008C18.5883 1.94062 18.6691 2.22812 18.6691 2.50664C18.6871 3.98906 18.6691 5.47148 18.6691 6.95391C18.6691 7.02578 18.6602 7.09765 18.6422 7.25039C18.0402 6.73828 17.4922 6.27109 16.9531 5.79492C16.8723 5.72305 16.8813 5.54336 16.8723 5.41758C16.8633 4.56406 16.8723 3.71055 16.8633 2.85703C16.8633 2.10234 16.5488 1.79687 15.7941 1.79687C11.7961 1.79687 7.79805 1.79687 3.8 1.79687C3.1082 1.79687 2.7668 2.12031 2.7668 2.79414C2.7668 8.55312 2.7668 14.3211 2.7668 20.0801C2.7668 20.9066 3.0543 21.1941 3.86289 21.1941C7.86094 21.1941 11.859 21.1941 15.857 21.1941C16.5309 21.1941 16.8633 20.8617 16.8723 20.1699C16.8723 19.3434 16.8813 18.5258 16.8633 17.6992C16.8543 17.4117 16.9172 17.2051 17.1598 17.0074C17.6539 16.6211 18.1121 16.1988 18.6332 15.7406C18.6512 15.9113 18.6691 16.0191 18.6691 16.127C18.6691 17.4926 18.6691 18.8492 18.6691 20.2148C18.6691 21.5715 18.0582 22.443 16.7914 22.9012C16.7375 22.9191 16.6926 22.9551 16.6477 22.991C12.0926 22.991 7.5375 22.991 2.99141 22.991C2.94648 22.9641 2.90156 22.9191 2.84766 22.9012C1.58086 22.434 0.960938 21.5535 0.960938 20.2148C0.960938 19.7656 0.960938 19.3164 0.960938 18.8672C0.960937 13.4496 0.960938 8.02305 0.978906 2.59648C0.978906 2.27305 1.05977 1.94062 1.16758 1.64414C1.46406 0.763672 2.18281 0.332422 2.99141 0C7.5375 0 12.0926 0 16.6477 0Z" fill="#3C3C4C"/>
<path d="M12.4699 14.1952C11.823 14.1952 11.2301 14.1952 10.6281 14.1952C9.55 14.1952 8.47187 14.2042 7.39375 14.1952C6.57617 14.1863 6.26172 13.8718 6.26172 13.0542C6.26172 12.021 6.26172 10.9878 6.2707 9.95461C6.2707 9.12805 6.57617 8.81359 7.40273 8.81359C8.91211 8.80461 10.4215 8.81359 11.9398 8.80461C12.1016 8.80461 12.2633 8.80461 12.4789 8.80461C12.4789 8.03195 12.4789 7.30422 12.4789 6.57648C12.4789 6.25304 12.5059 5.92961 12.8293 5.76789C13.1797 5.59718 13.4402 5.77687 13.7098 6.00148C15.6863 7.72648 17.6809 9.4425 19.6664 11.1585C19.7922 11.2663 19.9 11.3741 20.0527 11.5089C19.0914 12.3445 18.157 13.162 17.2227 13.9706C16.0367 14.9948 14.8508 16.0191 13.6738 17.0523C13.4492 17.2499 13.1797 17.4476 12.9281 17.2499C12.7215 17.0882 12.5238 16.7917 12.5059 16.5402C12.434 15.7675 12.4699 15.0038 12.4699 14.1952Z" fill="#3C3C4C"/>
</g>
<defs>
<clipPath id="clip0_1426_1412">
<rect width="19.0738" height="23" fill="white" transform="translate(0.960938)"/>
</clipPath>
</defs>
</svg>
