<svg width="20" height="21" viewBox="0 0 20 21" fill="none" xmlns="http://www.w3.org/2000/svg">
<path d="M6.93297 20.3422C5.77384 19.9277 4.60705 19.5055 3.44792 19.091C3.20996 19.8509 3.04108 19.9737 2.22739 19.9737C1.89731 19.9737 1.55955 19.9814 1.22947 19.9737C0.738183 19.9584 0.408101 19.636 0.408101 19.1447C0.400425 16.9032 0.400425 14.6694 0.408101 12.4279C0.408101 11.9597 0.745859 11.6296 1.20644 11.6142C1.66702 11.5989 2.1276 11.5912 2.58817 11.6142C3.07946 11.6373 3.30975 11.9213 3.43257 12.5968C3.67821 12.6198 3.92385 12.6429 4.2002 12.6659C4.12344 9.27296 5.97343 6.94703 8.4145 4.94352C7.78504 4.78999 6.77177 5.15845 6.32654 5.68812C6.28048 5.74953 6.24978 5.84165 6.18837 5.86467C6.06554 5.91841 5.91969 5.94144 5.7892 5.97214C5.76617 5.82629 5.68173 5.64206 5.73546 5.54227C6.02716 5.02796 6.49542 4.71323 7.04811 4.54435C7.49334 4.40617 7.96159 4.33709 8.43753 4.2373C8.13047 3.82277 7.72363 3.6539 7.21699 3.69995C6.62592 3.74601 6.06554 3.66925 5.55123 3.36987C5.37468 3.27008 5.15206 3.15494 5.29791 2.90162C5.43609 2.6483 5.62799 2.79415 5.82758 2.85556C6.21139 2.97838 6.61056 3.13191 7.00206 3.12423C7.65454 3.1012 8.21491 3.21635 8.7062 3.66157C8.74458 3.69995 8.80599 3.70763 8.95952 3.77672C8.88275 3.60784 8.85205 3.5234 8.81367 3.44664C8.59105 2.96303 8.33773 2.4871 8.14583 1.98814C8.06906 1.78855 8.06906 1.52756 8.10744 1.31262C8.16886 0.93648 8.48358 0.72922 8.80599 0.890422C9.20516 1.09001 9.4815 0.944157 9.7732 0.713867C9.98046 0.713867 10.18 0.713867 10.3873 0.713867C10.7942 1.13606 11.2087 1.00557 11.6155 0.713867C11.7921 0.713867 11.9763 0.713867 12.1529 0.713867C12.4599 0.951833 12.7593 1.08233 13.1661 0.882746C13.4809 0.72922 13.8109 0.959509 13.834 1.34332C13.857 1.6427 13.8263 1.96511 13.7112 2.24145C13.5039 2.76344 13.2199 3.24705 13.0126 3.66925C13.1124 4.03771 13.1815 4.36012 13.2813 4.67485C13.312 4.77464 13.3887 4.86675 13.4655 4.93584C13.7035 5.15078 13.9568 5.34268 14.2024 5.54995C14.356 5.68044 14.4634 5.857 14.2715 5.99517C14.1794 6.06426 13.9184 6.05658 13.8493 5.98749C13.3657 5.44248 12.8668 5.35804 12.1298 5.5653C11.1089 5.857 10.0265 5.77256 8.99022 5.4348C8.90578 5.41177 8.78296 5.41177 8.72155 5.45783C6.85621 6.95471 5.34397 8.70491 4.87572 11.1383C4.79128 11.5835 4.79895 12.0518 4.79895 12.5124C4.79895 12.6275 4.93713 12.7887 5.05995 12.8501C5.55123 13.0958 6.09625 13.2493 6.54915 13.5487C7.41658 14.1167 8.39914 14.1628 9.37404 14.2779C9.93441 14.347 10.4948 14.3931 11.0475 14.4698C12.1222 14.6157 12.6979 15.2528 12.7516 16.3352C12.7516 16.3812 12.767 16.435 12.7823 16.5194C13.9491 16.0051 15.0929 15.5061 16.229 14.9918C16.3518 14.9381 16.4439 14.7769 16.513 14.6541C17.3267 13.1879 17.3037 11.668 16.7817 10.125C16.4362 9.05802 15.8452 8.13686 15.1313 7.29247C15.0545 7.20803 14.947 7.13127 14.9163 7.03147C14.8626 6.88562 14.7935 6.67069 14.8626 6.57089C15.0161 6.36363 15.2004 6.49413 15.3385 6.64766C16.0831 7.48438 16.7203 8.39018 17.1501 9.42648C17.841 11.0846 17.9792 12.758 17.2499 14.5236C17.4649 14.4468 17.6184 14.3777 17.7796 14.324C18.4474 14.0937 19.0539 14.3316 19.3379 14.9227C19.6142 15.5061 19.4147 16.1433 18.8313 16.5117C17.1348 17.5864 15.4537 18.6764 13.7419 19.7281C13.3043 19.9968 12.79 20.1426 12.3141 20.3499C10.5178 20.3422 8.72155 20.3422 6.93297 20.3422ZM3.39419 13.1956C3.39419 13.4565 3.42489 13.6792 3.38651 13.8787C3.35581 14.0246 3.23298 14.2319 3.11784 14.2549C2.8722 14.3009 2.81079 14.086 2.81079 13.8711C2.81079 13.4335 2.80311 13.0036 2.81079 12.5661C2.81846 12.2897 2.711 12.1593 2.42697 12.1669C2.06618 12.1746 1.71307 12.1746 1.35229 12.1669C1.06826 12.1593 0.968472 12.2974 0.968472 12.5661C0.968472 14.7001 0.976148 16.8418 0.968472 18.9758C0.968472 19.2675 1.08362 19.4057 1.37532 19.3903C1.68237 19.3827 1.98942 19.3903 2.29647 19.3903C2.76473 19.3903 2.80311 19.352 2.80311 18.8914C2.80311 17.8551 2.79543 16.8188 2.81079 15.7825C2.81846 15.5215 2.64958 15.0839 3.08713 15.0686C3.53236 15.0609 3.37116 15.4984 3.37883 15.7594C3.39419 16.5271 3.39419 17.2947 3.37883 18.0623C3.37116 18.331 3.44792 18.4692 3.71659 18.5613C4.58402 18.8607 5.43609 19.2215 6.31119 19.5055C6.74106 19.6437 7.20932 19.7358 7.65454 19.7435C8.95952 19.7742 10.2645 19.7435 11.5695 19.7588C12.268 19.7665 12.8975 19.5822 13.4885 19.1984C14.9624 18.2466 16.4439 17.3177 17.9255 16.3812C18.1557 16.2354 18.386 16.1049 18.601 15.9437C18.8773 15.7441 18.931 15.4601 18.8006 15.1607C18.6624 14.846 18.4014 14.7385 18.0713 14.8229C17.9255 14.8613 17.7796 14.9227 17.6414 14.9841C16.6435 15.4217 15.6226 15.8055 14.663 16.3121C13.2429 17.0567 11.769 17.4252 10.1724 17.2486C9.86532 17.2179 9.55827 17.2717 9.25122 17.2256C9.12839 17.2103 9.0286 17.0414 8.91346 16.9493C9.0286 16.8495 9.12839 16.696 9.25122 16.6729C9.47383 16.6269 9.71179 16.6576 9.94208 16.6576C10.6713 16.6576 11.3929 16.6576 12.1068 16.6576C12.268 15.6904 11.8535 15.1223 10.94 15.0148C10.7097 14.9918 10.4794 14.9611 10.2568 14.9381C8.59873 14.7922 6.956 14.608 5.50517 13.6408C4.92177 13.2646 4.18485 13.1802 3.39419 13.1956ZM13.358 1.52756C13.3273 1.49685 13.2966 1.46615 13.2659 1.43544C12.8284 1.63502 12.4446 1.55059 12.0531 1.33565C11.9303 1.26656 11.7 1.3203 11.5541 1.39706C11.1549 1.612 10.7865 1.60432 10.3873 1.39706C10.2491 1.32797 10.0342 1.25889 9.92673 1.3203C9.51989 1.54291 9.11304 1.6427 8.59105 1.42009C8.66782 1.70411 8.69852 1.88834 8.75993 2.0649C9.28192 3.53875 9.78856 3.83045 11.3469 3.71531C12.0761 3.66157 12.6058 3.41593 12.8668 2.70203C13.0203 2.30286 13.1968 1.91137 13.358 1.52756ZM10.8632 5.16613C11.3545 5.08937 11.8381 5.02796 12.3141 4.94352C12.6058 4.89746 12.7439 4.7209 12.6825 4.4292C12.6211 4.1375 12.4062 4.09145 12.1529 4.15286C11.2931 4.35244 10.4334 4.36012 9.57362 4.15286C9.3203 4.09145 9.10536 4.12215 9.03628 4.42153C8.97487 4.71323 9.10536 4.89746 9.39707 4.94352C9.88835 5.02796 10.3796 5.09704 10.8632 5.16613Z" fill="#07B476"/>
<path d="M10.6409 12.4969C10.6409 11.6986 10.6563 11 10.6256 10.2938C10.6179 10.1863 10.426 10.0558 10.2955 9.98674C9.51249 9.55686 9.22079 8.88902 9.60461 8.1828C9.76581 7.88343 10.1189 7.69152 10.3799 7.4382C10.472 7.34608 10.6025 7.24629 10.6256 7.13115C10.6716 6.91621 10.6332 6.65522 10.948 6.67057C11.255 6.68592 11.2166 6.95459 11.2243 7.16953C11.2243 7.21559 11.2397 7.26932 11.2397 7.28467C11.539 7.42285 11.8307 7.53032 12.0764 7.69919C12.1685 7.76061 12.1685 7.97554 12.2069 8.11372C12.061 8.12907 11.9075 8.1828 11.7693 8.1521C11.6081 8.11372 11.4546 8.00625 11.2243 7.8911C11.2243 8.52056 11.2166 9.08093 11.232 9.63363C11.232 9.69504 11.3164 9.79483 11.3855 9.81786C12.1455 10.0789 12.6675 10.5394 12.6137 11.4069C12.56 12.2666 12.0534 12.7732 11.255 12.9959C11.1399 13.2492 11.3855 13.7021 10.9403 13.7251C10.4797 13.7481 10.7177 13.2722 10.6256 13.1033C10.2264 12.9421 9.85793 12.827 9.52785 12.6504C9.42038 12.589 9.39735 12.3741 9.33594 12.2282C9.48946 12.2052 9.65834 12.1361 9.79652 12.1745C10.0729 12.2359 10.3185 12.3587 10.6409 12.4969ZM11.2473 12.3434C11.7386 12.2129 12.061 11.7907 12.0534 11.3071C12.0457 10.8465 11.754 10.5318 11.2473 10.4396C11.2473 11.0768 11.2473 11.7062 11.2473 12.3434ZM10.6256 7.96787C10.1957 8.1521 10.0268 8.4438 10.0422 8.83529C10.0575 9.1884 10.2801 9.36495 10.6256 9.45707C10.6256 8.95811 10.6256 8.48986 10.6256 7.96787Z" fill="#07B476"/>
</svg>
