<svg width="20" height="21" viewBox="0 0 20 21" fill="none" xmlns="http://www.w3.org/2000/svg">
<path d="M6.63902 20.3422C5.4799 19.9277 4.3131 19.5055 3.15398 19.091C2.91601 19.8509 2.74713 19.9737 1.93344 19.9737C1.60336 19.9737 1.2656 19.9814 0.935521 19.9737C0.444237 19.9584 0.114156 19.636 0.114156 19.1447C0.106479 16.9032 0.106479 14.6694 0.114156 12.4279C0.114156 11.9597 0.451914 11.6296 0.912492 11.6142C1.37307 11.5989 1.83365 11.5912 2.29423 11.6142C2.78551 11.6373 3.0158 11.9213 3.13862 12.5968C3.38427 12.6198 3.62991 12.6429 3.90626 12.6659C3.82949 9.27296 5.67948 6.94703 8.12055 4.94352C7.49109 4.78999 6.47782 5.15845 6.03259 5.68812C5.98654 5.74953 5.95583 5.84165 5.89442 5.86467C5.7716 5.91841 5.62575 5.94144 5.49525 5.97214C5.47222 5.82629 5.38778 5.64206 5.44152 5.54227C5.73322 5.02796 6.20147 4.71323 6.75417 4.54435C7.19939 4.40617 7.66765 4.33709 8.14358 4.2373C7.83653 3.82277 7.42968 3.6539 6.92305 3.69995C6.33197 3.74601 5.7716 3.66925 5.25729 3.36987C5.08073 3.27008 4.85812 3.15494 5.00397 2.90162C5.14214 2.6483 5.33405 2.79415 5.53363 2.85556C5.91745 2.97838 6.31662 3.13191 6.70811 3.12423C7.3606 3.1012 7.92097 3.21635 8.41225 3.66157C8.45063 3.69995 8.51204 3.70763 8.66557 3.77672C8.58881 3.60784 8.5581 3.5234 8.51972 3.44664C8.29711 2.96303 8.04379 2.4871 7.85188 1.98814C7.77512 1.78855 7.77512 1.52756 7.8135 1.31262C7.87491 0.93648 8.18964 0.72922 8.51204 0.890422C8.91121 1.09001 9.18756 0.944157 9.47926 0.713867C9.68652 0.713867 9.8861 0.713867 10.0934 0.713867C10.5002 1.13606 10.9147 1.00557 11.3216 0.713867C11.4981 0.713867 11.6824 0.713867 11.8589 0.713867C12.166 0.951833 12.4653 1.08233 12.8722 0.882746C13.1869 0.72922 13.517 0.959509 13.54 1.34332C13.5631 1.6427 13.5324 1.96511 13.4172 2.24145C13.2099 2.76344 12.9259 3.24705 12.7187 3.66925C12.8185 4.03771 12.8875 4.36012 12.9873 4.67485C13.018 4.77464 13.0948 4.86675 13.1716 4.93584C13.4095 5.15078 13.6629 5.34268 13.9085 5.54995C14.062 5.68044 14.1695 5.857 13.9776 5.99517C13.8855 6.06426 13.6245 6.05658 13.5554 5.98749C13.0718 5.44248 12.5728 5.35804 11.8359 5.5653C10.8149 5.857 9.73258 5.77256 8.69628 5.4348C8.61184 5.41177 8.48901 5.41177 8.4276 5.45783C6.56226 6.95471 5.05003 8.70491 4.58177 11.1383C4.49733 11.5835 4.50501 12.0518 4.50501 12.5124C4.50501 12.6275 4.64318 12.7887 4.766 12.8501C5.25729 13.0958 5.8023 13.2493 6.25521 13.5487C7.12263 14.1167 8.1052 14.1628 9.08009 14.2779C9.64046 14.347 10.2008 14.3931 10.7535 14.4698C11.8282 14.6157 12.4039 15.2528 12.4577 16.3352C12.4577 16.3812 12.473 16.435 12.4884 16.5194C13.6552 16.0051 14.7989 15.5061 15.935 14.9918C16.0579 14.9381 16.15 14.7769 16.2191 14.6541C17.0328 13.1879 17.0097 11.668 16.4877 10.125C16.1423 9.05802 15.5512 8.13686 14.8373 7.29247C14.7606 7.20803 14.6531 7.13127 14.6224 7.03147C14.5687 6.88562 14.4996 6.67069 14.5687 6.57089C14.7222 6.36363 14.9064 6.49413 15.0446 6.64766C15.7892 7.48438 16.4263 8.39018 16.8562 9.42648C17.5471 11.0846 17.6852 12.758 16.956 14.5236C17.1709 14.4468 17.3245 14.3777 17.4857 14.324C18.1535 14.0937 18.7599 14.3316 19.0439 14.9227C19.3203 15.5061 19.1207 16.1433 18.5373 16.5117C16.8408 17.5864 15.1597 18.6764 13.4479 19.7281C13.0104 19.9968 12.4961 20.1426 12.0201 20.3499C10.2239 20.3422 8.4276 20.3422 6.63902 20.3422ZM3.10024 13.1956C3.10024 13.4565 3.13095 13.6792 3.09257 13.8787C3.06186 14.0246 2.93904 14.2319 2.82389 14.2549C2.57825 14.3009 2.51684 14.086 2.51684 13.8711C2.51684 13.4335 2.50917 13.0036 2.51684 12.5661C2.52452 12.2897 2.41705 12.1593 2.13303 12.1669C1.77224 12.1746 1.41913 12.1746 1.05834 12.1669C0.774319 12.1593 0.674527 12.2974 0.674527 12.5661C0.674527 14.7001 0.682203 16.8418 0.674527 18.9758C0.674527 19.2675 0.789671 19.4057 1.08137 19.3903C1.38842 19.3827 1.69548 19.3903 2.00253 19.3903C2.47078 19.3903 2.50917 19.352 2.50917 18.8914C2.50917 17.8551 2.50149 16.8188 2.51684 15.7825C2.52452 15.5215 2.35564 15.0839 2.79319 15.0686C3.23842 15.0609 3.07721 15.4984 3.08489 15.7594C3.10024 16.5271 3.10024 17.2947 3.08489 18.0623C3.07721 18.331 3.15398 18.4692 3.42265 18.5613C4.29007 18.8607 5.14214 19.2215 6.01724 19.5055C6.44711 19.6437 6.91537 19.7358 7.3606 19.7435C8.66557 19.7742 9.97054 19.7435 11.2755 19.7588C11.9741 19.7665 12.6035 19.5822 13.1946 19.1984C14.6684 18.2466 16.15 17.3177 17.6315 16.3812C17.8618 16.2354 18.0921 16.1049 18.307 15.9437C18.5834 15.7441 18.6371 15.4601 18.5066 15.1607C18.3684 14.846 18.1074 14.7385 17.7774 14.8229C17.6315 14.8613 17.4857 14.9227 17.3475 14.9841C16.3496 15.4217 15.3286 15.8055 14.3691 16.3121C12.949 17.0567 11.4751 17.4252 9.87843 17.2486C9.57137 17.2179 9.26432 17.2717 8.95727 17.2256C8.83445 17.2103 8.73466 17.0414 8.61951 16.9493C8.73466 16.8495 8.83445 16.696 8.95727 16.6729C9.17988 16.6269 9.41785 16.6576 9.64814 16.6576C10.3774 16.6576 11.099 16.6576 11.8129 16.6576C11.9741 15.6904 11.5595 15.1223 10.6461 15.0148C10.4158 14.9918 10.1855 14.9611 9.96287 14.9381C8.30478 14.7922 6.66205 14.608 5.21123 13.6408C4.62783 13.2646 3.8909 13.1802 3.10024 13.1956ZM13.0641 1.52756C13.0334 1.49685 13.0027 1.46615 12.972 1.43544C12.5344 1.63502 12.1506 1.55059 11.7591 1.33565C11.6363 1.26656 11.406 1.3203 11.2602 1.39706C10.861 1.612 10.4925 1.60432 10.0934 1.39706C9.95519 1.32797 9.74025 1.25889 9.63279 1.3203C9.22594 1.54291 8.8191 1.6427 8.29711 1.42009C8.37387 1.70411 8.40458 1.88834 8.46599 2.0649C8.98798 3.53875 9.49461 3.83045 11.0529 3.71531C11.7822 3.66157 12.3118 3.41593 12.5728 2.70203C12.7263 2.30286 12.9029 1.91137 13.0641 1.52756ZM10.5693 5.16613C11.0606 5.08937 11.5442 5.02796 12.0201 4.94352C12.3118 4.89746 12.45 4.7209 12.3886 4.4292C12.3272 4.1375 12.1122 4.09145 11.8589 4.15286C10.9992 4.35244 10.1394 4.36012 9.27968 4.15286C9.02636 4.09145 8.81142 4.12215 8.74233 4.42153C8.68092 4.71323 8.81142 4.89746 9.10312 4.94352C9.5944 5.02796 10.0857 5.09704 10.5693 5.16613Z" fill="#FFA800"/>
<path d="M10.347 12.4969C10.347 11.6986 10.3623 11 10.3316 10.2938C10.3239 10.1863 10.132 10.0558 10.0015 9.98674C9.21855 9.55686 8.92685 8.88902 9.31066 8.1828C9.47187 7.88343 9.82498 7.69152 10.086 7.4382C10.1781 7.34608 10.3086 7.24629 10.3316 7.13115C10.3777 6.91621 10.3393 6.65522 10.654 6.67057C10.9611 6.68592 10.9227 6.95459 10.9304 7.16953C10.9304 7.21559 10.9457 7.26932 10.9457 7.28467C11.2451 7.42285 11.5368 7.53032 11.7824 7.69919C11.8746 7.76061 11.8746 7.97554 11.9129 8.11372C11.7671 8.12907 11.6136 8.1828 11.4754 8.1521C11.3142 8.11372 11.1607 8.00625 10.9304 7.8911C10.9304 8.52056 10.9227 9.08093 10.938 9.63363C10.938 9.69504 11.0225 9.79483 11.0916 9.81786C11.8515 10.0789 12.3735 10.5394 12.3198 11.4069C12.266 12.2666 11.7594 12.7732 10.9611 12.9959C10.8459 13.2492 11.0916 13.7021 10.6463 13.7251C10.1858 13.7481 10.4237 13.2722 10.3316 13.1033C9.93244 12.9421 9.56398 12.827 9.2339 12.6504C9.12643 12.589 9.1034 12.3741 9.04199 12.2282C9.19552 12.2052 9.3644 12.1361 9.50257 12.1745C9.77892 12.2359 10.0246 12.3587 10.347 12.4969ZM10.9534 12.3434C11.4447 12.2129 11.7671 11.7907 11.7594 11.3071C11.7517 10.8465 11.46 10.5318 10.9534 10.4396C10.9534 11.0768 10.9534 11.7062 10.9534 12.3434ZM10.3316 7.96787C9.90174 8.1521 9.73286 8.4438 9.74821 8.83529C9.76357 9.1884 9.98618 9.36495 10.3316 9.45707C10.3316 8.95811 10.3316 8.48986 10.3316 7.96787Z" fill="#FFA800"/>
</svg>
