<svg width="20" height="20" viewBox="0 0 20 20" fill="none" xmlns="http://www.w3.org/2000/svg">
<path d="M7.34898 19.7026C6.18986 19.288 5.02306 18.8658 3.86394 18.4513C3.62597 19.2113 3.45709 19.3341 2.6434 19.3341C2.31332 19.3341 1.97556 19.3418 1.64548 19.3341C1.1542 19.3187 0.824117 18.9963 0.824117 18.505C0.81644 16.2636 0.81644 14.0298 0.824117 11.7883C0.824117 11.32 1.16187 10.9899 1.62245 10.9746C2.08303 10.9592 2.54361 10.9516 3.00419 10.9746C3.49547 10.9976 3.72576 11.2816 3.84858 11.9572C4.09423 11.9802 4.33987 12.0032 4.61622 12.0262C4.53945 8.63331 6.38944 6.30739 8.83051 4.30387C8.20106 4.15034 7.18778 4.5188 6.74255 5.04847C6.6965 5.10988 6.66579 5.202 6.60438 5.22503C6.48156 5.27876 6.33571 5.30179 6.20521 5.33249C6.18218 5.18664 6.09774 5.00241 6.15148 4.90262C6.44318 4.38831 6.91143 4.07358 7.46413 3.9047C7.90935 3.76653 8.37761 3.69744 8.85354 3.59765C8.54649 3.18313 8.13964 3.01425 7.63301 3.06031C7.04193 3.10636 6.48156 3.0296 5.96725 2.73022C5.79069 2.63043 5.56808 2.51529 5.71393 2.26197C5.8521 2.00865 6.04401 2.1545 6.24359 2.21591C6.62741 2.33873 7.02658 2.49226 7.41807 2.48458C8.07056 2.46155 8.63093 2.5767 9.12221 3.02192C9.16059 3.06031 9.222 3.06798 9.37553 3.13707C9.29877 2.96819 9.26806 2.88375 9.22968 2.80699C9.00707 2.32338 8.75375 1.84745 8.56184 1.34849C8.48508 1.1489 8.48508 0.887908 8.52346 0.672971C8.58487 0.296832 8.8996 0.0895714 9.222 0.250774C9.62117 0.450358 9.89752 0.304508 10.1892 0.0742188C10.3965 0.0742188 10.5961 0.0742188 10.8033 0.0742188C11.2102 0.496416 11.6247 0.365919 12.0315 0.0742188C12.2081 0.0742188 12.3923 0.0742188 12.5689 0.0742188C12.8759 0.312184 13.1753 0.442682 13.5822 0.243098C13.8969 0.0895714 14.227 0.319861 14.25 0.703677C14.273 1.00305 14.2423 1.32546 14.1272 1.60181C13.9199 2.12379 13.6359 2.6074 13.4286 3.0296C13.5284 3.39806 13.5975 3.72047 13.6973 4.0352C13.728 4.13499 13.8048 4.22711 13.8815 4.29619C14.1195 4.51113 14.3728 4.70304 14.6185 4.9103C14.772 5.04079 14.8794 5.21735 14.6875 5.35552C14.5954 5.42461 14.3344 5.41693 14.2653 5.34785C13.7817 4.80283 13.2828 4.71839 12.5458 4.92565C11.5249 5.21735 10.4425 5.13291 9.40624 4.79515C9.3218 4.77212 9.19898 4.77212 9.13757 4.81818C7.27222 6.31506 5.75999 8.06526 5.29173 10.4987C5.20729 10.9439 5.21497 11.4121 5.21497 11.8727C5.21497 11.9879 5.35314 12.1491 5.47596 12.2105C5.96725 12.4561 6.51227 12.6096 6.96517 12.909C7.83259 13.4771 8.81516 13.5231 9.79005 13.6383C10.3504 13.7074 10.9108 13.7534 11.4635 13.8302C12.5382 13.976 13.1139 14.6132 13.1676 15.6955C13.1676 15.7416 13.183 15.7953 13.1983 15.8798C14.3651 15.3654 15.5089 14.8665 16.645 14.3522C16.7678 14.2984 16.8599 14.1372 16.929 14.0144C17.7427 12.5482 17.7197 11.0283 17.1977 9.48538C16.8523 8.41837 16.2612 7.49721 15.5473 6.65282C15.4705 6.56838 15.3631 6.49162 15.3324 6.39183C15.2786 6.24598 15.2095 6.03104 15.2786 5.93125C15.4321 5.72399 15.6164 5.85448 15.7545 6.00801C16.4992 6.84473 17.1363 7.75053 17.5662 8.78684C18.257 10.4449 18.3952 12.1184 17.666 13.8839C17.8809 13.8071 18.0344 13.7381 18.1956 13.6843C18.8635 13.454 19.4699 13.692 19.7539 14.2831C20.0303 14.8665 19.8307 15.5036 19.2473 15.8721C17.5508 16.9468 15.8697 18.0368 14.1579 19.0884C13.7203 19.3571 13.206 19.503 12.7301 19.7102C10.9338 19.7026 9.13756 19.7026 7.34898 19.7026ZM3.8102 12.5559C3.8102 12.8169 3.84091 13.0395 3.80253 13.2391C3.77182 13.3849 3.649 13.5922 3.53386 13.6152C3.28821 13.6613 3.2268 13.4464 3.2268 13.2314C3.2268 12.7939 3.21913 12.364 3.2268 11.9264C3.23448 11.6501 3.12701 11.5196 2.84299 11.5273C2.4822 11.535 2.12909 11.535 1.7683 11.5273C1.48428 11.5196 1.38449 11.6578 1.38449 11.9264C1.38449 14.0605 1.39216 16.2022 1.38449 18.3362C1.38449 18.6279 1.49963 18.766 1.79133 18.7507C2.09838 18.743 2.40544 18.7507 2.71249 18.7507C3.18075 18.7507 3.21913 18.7123 3.21913 18.2517C3.21913 17.2154 3.21145 16.1791 3.2268 15.1428C3.23448 14.8818 3.0656 14.4443 3.50315 14.4289C3.94838 14.4213 3.78717 14.8588 3.79485 15.1198C3.8102 15.8874 3.8102 16.6551 3.79485 17.4227C3.78717 17.6914 3.86394 17.8295 4.13261 17.9216C5.00003 18.221 5.8521 18.5818 6.7272 18.8658C7.15708 19.004 7.62533 19.0961 8.07056 19.1038C9.37553 19.1345 10.6805 19.1038 11.9855 19.1192C12.684 19.1268 13.3135 18.9426 13.9046 18.5588C15.3784 17.6069 16.8599 16.6781 18.3415 15.7416C18.5718 15.5957 18.802 15.4652 19.017 15.304C19.2933 15.1044 19.3471 14.8204 19.2166 14.521C19.0784 14.2063 18.8174 14.0988 18.4873 14.1833C18.3415 14.2217 18.1956 14.2831 18.0574 14.3445C17.0595 14.782 16.0386 15.1659 15.079 15.6725C13.6589 16.4171 12.1851 16.7856 10.5884 16.609C10.2813 16.5783 9.97428 16.632 9.66723 16.586C9.54441 16.5706 9.44462 16.4017 9.32947 16.3096C9.44462 16.2098 9.54441 16.0563 9.66723 16.0333C9.88984 15.9872 10.1278 16.0179 10.3581 16.0179C11.0873 16.0179 11.8089 16.0179 12.5228 16.0179C12.684 15.0507 12.2695 14.4827 11.356 14.3752C11.1257 14.3522 10.8954 14.3215 10.6728 14.2984C9.01474 14.1526 7.37201 13.9683 5.92119 13.0011C5.33779 12.625 4.60086 12.5406 3.8102 12.5559ZM13.7741 0.887908C13.7434 0.857203 13.7126 0.826498 13.6819 0.795792C13.2444 0.995376 12.8606 0.910937 12.4691 0.696C12.3463 0.626913 12.116 0.680648 11.9701 0.757411C11.571 0.972347 11.2025 0.964671 10.8033 0.757411C10.6652 0.688324 10.4502 0.619237 10.3427 0.680648C9.9359 0.903261 9.52906 1.00305 9.00707 0.78044C9.08383 1.06446 9.11454 1.24869 9.17595 1.42525C9.69794 2.8991 10.2046 3.1908 11.7629 3.07566C12.4921 3.02192 13.0218 2.77628 13.2828 2.06238C13.4363 1.66322 13.6129 1.27172 13.7741 0.887908ZM11.2793 4.52648C11.7705 4.44972 12.2541 4.38831 12.7301 4.30387C13.0218 4.25781 13.16 4.08125 13.0985 3.78956C13.0371 3.49786 12.8222 3.4518 12.5689 3.51321C11.7091 3.71279 10.8494 3.72047 9.98964 3.51321C9.73632 3.4518 9.52138 3.4825 9.45229 3.78188C9.39088 4.07358 9.52138 4.25781 9.81308 4.30387C10.3044 4.38831 10.7956 4.45739 11.2793 4.52648Z" fill="white"/>
<path d="M11.0569 11.8572C11.0569 11.0589 11.0723 10.3604 11.0416 9.65414C11.0339 9.54667 10.842 9.41617 10.7115 9.34709C9.92851 8.91721 9.63681 8.24937 10.0206 7.54315C10.1818 7.24378 10.5349 7.05187 10.7959 6.79855C10.888 6.70644 11.0185 6.60664 11.0416 6.4915C11.0876 6.27656 11.0492 6.01557 11.364 6.03092C11.671 6.04627 11.6327 6.31494 11.6403 6.52988C11.6403 6.57594 11.6557 6.62967 11.6557 6.64503C11.9551 6.7832 12.2468 6.89067 12.4924 7.05955C12.5845 7.12096 12.5845 7.33589 12.6229 7.47407C12.477 7.48942 12.3235 7.54315 12.1853 7.51245C12.0241 7.47407 11.8706 7.3666 11.6403 7.25145C11.6403 7.88091 11.6327 8.44128 11.648 8.99398C11.648 9.05539 11.7324 9.15518 11.8015 9.17821C12.5615 9.4392 13.0835 9.89978 13.0297 10.7672C12.976 11.627 12.4694 12.1336 11.671 12.3562C11.5559 12.6095 11.8015 13.0624 11.3563 13.0855C10.8957 13.1085 11.1337 12.6326 11.0416 12.4637C10.6424 12.3025 10.2739 12.1873 9.94386 12.0108C9.83639 11.9494 9.81336 11.7344 9.75195 11.5886C9.90548 11.5655 10.0744 11.4965 10.2125 11.5348C10.4889 11.5962 10.7345 11.7191 11.0569 11.8572ZM11.6634 11.7037C12.1546 11.5732 12.477 11.151 12.4694 10.6674C12.4617 10.2068 12.17 9.89211 11.6634 9.79999C11.6634 10.4371 11.6634 11.0666 11.6634 11.7037ZM11.0416 7.32822C10.6117 7.51245 10.4428 7.80415 10.4582 8.19564C10.4735 8.54875 10.6961 8.72531 11.0416 8.81742C11.0416 8.31846 11.0416 7.85021 11.0416 7.32822Z" fill="white"/>
</svg>
