<svg width="20" height="21" viewBox="0 0 20 21" fill="none" xmlns="http://www.w3.org/2000/svg">
<path d="M6.20696 20.3499C5.96584 20.2218 5.70212 20.1239 5.49114 19.9505C4.94109 19.506 4.78286 18.7525 5.06165 18.112C5.34044 17.464 6.01859 17.0647 6.69673 17.1476C7.44269 17.238 7.99274 17.7579 8.12083 18.4888C8.23386 19.1745 7.88725 19.8677 7.26185 20.1766C7.14129 20.2369 7.0132 20.2896 6.89264 20.3499C6.65905 20.3499 6.43301 20.3499 6.20696 20.3499ZM6.5385 19.5361C6.97552 19.5361 7.32966 19.1895 7.3372 18.76C7.34473 18.3155 6.98306 17.9387 6.5385 17.9387C6.0864 17.9387 5.73226 18.3079 5.73979 18.76C5.74733 19.1971 6.09394 19.5361 6.5385 19.5361Z" fill="#00B0FF"/>
<path d="M13.4394 20.3499C13.1983 20.2218 12.9345 20.1239 12.7236 19.9505C12.1735 19.506 12.0153 18.7525 12.2941 18.112C12.5729 17.464 13.251 17.0647 13.9292 17.1476C14.6751 17.238 15.2252 17.7579 15.3533 18.4888C15.4663 19.1745 15.1197 19.8677 14.4943 20.1766C14.3737 20.2369 14.2456 20.2896 14.1251 20.3499C13.8915 20.3499 13.6654 20.3499 13.4394 20.3499ZM13.7785 19.5361C14.2155 19.5286 14.5621 19.182 14.5696 18.745C14.5696 18.3004 14.2004 17.9312 13.7558 17.9387C13.3038 17.9463 12.9571 18.3155 12.9722 18.7676C12.9873 19.2121 13.3414 19.5437 13.7785 19.5361Z" fill="#00B0FF"/>
<path d="M4.82708 13.9301C4.64625 13.0108 4.48048 12.1519 4.30717 11.2929C3.86261 9.06254 3.41805 6.83973 2.97349 4.6094C2.81526 3.81069 2.40084 3.47162 1.5946 3.46409C1.25553 3.46409 0.916457 3.46409 0.577385 3.46409C0.313662 3.46409 0.125289 3.35106 0.110219 3.07981C0.0951494 2.80101 0.283523 2.66538 0.53971 2.65785C1.01441 2.65031 1.49665 2.62771 1.97135 2.67292C2.88307 2.76334 3.53108 3.3812 3.72698 4.28539C3.84001 4.79777 3.93796 5.31768 4.05099 5.86773C4.87229 5.86773 5.68607 5.86773 6.49984 5.86773C6.63547 5.86773 6.77863 5.86019 6.91426 5.86773C7.16291 5.8828 7.32115 6.01089 7.32868 6.26708C7.33622 6.52327 7.16291 6.66643 6.92179 6.67397C6.40942 6.68904 5.88951 6.6815 5.37713 6.6815C5.00039 6.6815 4.63118 6.6815 4.22429 6.6815C4.4428 7.78913 4.65378 8.85156 4.86476 9.90645C5.11341 11.1346 5.36206 12.3628 5.60318 13.5986C5.64086 13.7869 5.671 13.9226 5.91965 13.9226C9.04664 13.915 12.1736 13.915 15.3006 13.915C15.3383 13.915 15.376 13.9 15.4589 13.8849C15.5191 13.5684 15.587 13.2444 15.6548 12.9129C15.7151 12.6341 15.8507 12.4307 16.1672 12.4985C16.4685 12.5663 16.5062 12.7999 16.4535 13.0636C16.3781 13.4328 16.3028 13.802 16.235 14.1712C16.137 14.6459 16.0692 14.7137 15.587 14.7137C13.3491 14.7137 11.1187 14.7137 8.88088 14.7137C7.27594 14.7137 5.66346 14.7137 4.05852 14.7137C3.96057 14.7137 3.85508 14.7062 3.75712 14.7213C3.51601 14.7439 3.3427 14.8569 3.35024 15.1206C3.35024 15.3768 3.51601 15.5049 3.75712 15.52C3.87015 15.5275 3.98317 15.52 4.0962 15.52C8.41371 15.52 12.7388 15.52 17.0563 15.52C17.1844 15.52 17.3351 15.4748 17.4255 15.535C17.5762 15.633 17.757 15.7837 17.7796 15.9344C17.7947 16.0474 17.5837 16.2057 17.4481 16.3111C17.3953 16.3563 17.2748 16.3262 17.1919 16.3262C12.7614 16.3262 8.32329 16.3262 3.89275 16.3262C3.70438 16.3262 3.51601 16.3036 3.33517 16.2509C2.80772 16.0851 2.47619 15.535 2.53647 14.985C2.60428 14.4199 3.06391 13.9602 3.63657 13.9301C4.00578 13.9075 4.39759 13.9301 4.82708 13.9301Z" fill="#00B0FF"/>
<path d="M13.3342 7.31443C13.5 7.12606 13.6431 6.96782 13.7788 6.80959C14.4569 6.03349 15.1351 5.26493 15.8132 4.48883C15.994 4.28539 16.205 4.19497 16.4311 4.38334C16.6571 4.57925 16.6044 4.8053 16.4235 5.00874C15.5269 6.04103 14.6227 7.07331 13.7185 8.09806C13.4774 8.36932 13.2815 8.36932 13.0102 8.1056C12.5204 7.62336 12.0307 7.13359 11.5409 6.64382C11.3525 6.45545 11.2546 6.23693 11.4656 6.01842C11.6916 5.78484 11.9177 5.87526 12.1136 6.0787C12.5204 6.47805 12.9123 6.88494 13.3342 7.31443Z" fill="#00B0FF"/>
<path d="M14.1476 11.8882C11.0658 11.8882 8.55664 9.37903 8.55664 6.29725C8.55664 3.21546 11.0658 0.713867 14.1476 0.713867C17.2293 0.713867 19.7385 3.223 19.7385 6.30478C19.7385 9.38657 17.2293 11.8882 14.1476 11.8882ZM14.1476 1.46736C11.4802 1.46736 9.31013 3.63742 9.31013 6.30478C9.31013 8.97215 11.4802 11.1422 14.1476 11.1422C16.8149 11.1422 18.985 8.97215 18.985 6.30478C18.985 3.63742 16.8149 1.46736 14.1476 1.46736Z" fill="#00B0FF"/>
</svg>
