<svg width="20" height="20" viewBox="0 0 20 20" fill="none" xmlns="http://www.w3.org/2000/svg">
<path d="M6.20305 19.7112C5.96194 19.5831 5.69821 19.4852 5.48724 19.3119C4.93719 18.8673 4.77895 18.1138 5.05774 17.4734C5.33654 16.8254 6.01468 16.426 6.69282 16.5089C7.43878 16.5993 7.98883 17.1192 8.11693 17.8501C8.22995 18.5358 7.88334 19.229 7.25794 19.5379C7.13738 19.5982 7.00929 19.6509 6.88873 19.7112C6.65515 19.7112 6.4291 19.7112 6.20305 19.7112ZM6.53459 18.8975C6.97162 18.8975 7.32576 18.5508 7.33329 18.1214C7.34083 17.6768 6.97915 17.3001 6.53459 17.3001C6.08249 17.3001 5.72835 17.6693 5.73589 18.1214C5.74342 18.5584 6.09003 18.8975 6.53459 18.8975Z" fill="white"/>
<path d="M13.4355 19.7112C13.1944 19.5831 12.9306 19.4852 12.7197 19.3119C12.1696 18.8673 12.0114 18.1138 12.2902 17.4734C12.569 16.8254 13.2471 16.426 13.9252 16.5089C14.6712 16.5993 15.2213 17.1192 15.3493 17.8501C15.4624 18.5358 15.1158 19.229 14.4904 19.5379C14.3698 19.5982 14.2417 19.6509 14.1212 19.7112C13.8876 19.7112 13.6615 19.7112 13.4355 19.7112ZM13.7745 18.8975C14.2116 18.8899 14.5582 18.5433 14.5657 18.1063C14.5657 17.6617 14.1965 17.2925 13.7519 17.3001C13.2998 17.3076 12.9532 17.6768 12.9683 18.1289C12.9834 18.5735 13.3375 18.905 13.7745 18.8975Z" fill="white"/>
<path d="M4.82318 13.2914C4.64234 12.3722 4.47657 11.5132 4.30327 10.6542C3.85871 8.42387 3.41415 6.20106 2.96959 3.97072C2.81135 3.17202 2.39693 2.83295 1.59069 2.82541C1.25162 2.82541 0.91255 2.82541 0.573478 2.82541C0.309756 2.82541 0.121383 2.71239 0.106313 2.44113C0.0912431 2.16234 0.279616 2.02671 0.535804 2.01918C1.0105 2.01164 1.49274 1.98904 1.96744 2.03425C2.87917 2.12467 3.52717 2.74253 3.72308 3.64672C3.8361 4.1591 3.93406 4.67901 4.04708 5.22906C4.86839 5.22906 5.68216 5.22906 6.49593 5.22906C6.63156 5.22906 6.77472 5.22152 6.91035 5.22906C7.15901 5.24413 7.31724 5.37222 7.32477 5.62841C7.33231 5.8846 7.15901 6.02776 6.91789 6.03529C6.40551 6.05036 5.8856 6.04283 5.37323 6.04283C4.99648 6.04283 4.62727 6.04283 4.22038 6.04283C4.4389 7.15046 4.64987 8.21289 4.86085 9.26778C5.1095 10.496 5.35816 11.7242 5.59928 12.9599C5.63695 13.1483 5.66709 13.2839 5.91574 13.2839C9.04274 13.2764 12.1697 13.2764 15.2967 13.2764C15.3344 13.2764 15.3721 13.2613 15.455 13.2462C15.5152 12.9298 15.5831 12.6058 15.6509 12.2742C15.7111 11.9954 15.8468 11.792 16.1632 11.8598C16.4646 11.9276 16.5023 12.1612 16.4496 12.4249C16.3742 12.7941 16.2989 13.1633 16.2311 13.5325C16.1331 14.0072 16.0653 14.0751 15.5831 14.0751C13.3452 14.0751 11.1148 14.0751 8.87697 14.0751C7.27203 14.0751 5.65955 14.0751 4.05462 14.0751C3.95666 14.0751 3.85117 14.0675 3.75322 14.0826C3.5121 14.1052 3.3388 14.2182 3.34633 14.4819C3.34633 14.7381 3.5121 14.8662 3.75322 14.8813C3.86624 14.8888 3.97927 14.8813 4.09229 14.8813C8.4098 14.8813 12.7349 14.8813 17.0524 14.8813C17.1805 14.8813 17.3312 14.8361 17.4216 14.8964C17.5723 14.9943 17.7531 15.145 17.7757 15.2957C17.7908 15.4087 17.5798 15.567 17.4442 15.6725C17.3914 15.7177 17.2709 15.6875 17.188 15.6875C12.7575 15.6875 8.31938 15.6875 3.88885 15.6875C3.70047 15.6875 3.5121 15.6649 3.33126 15.6122C2.80382 15.4464 2.47228 14.8964 2.53256 14.3463C2.60037 13.7812 3.06 13.3216 3.63266 13.2914C4.00187 13.2688 4.39369 13.2914 4.82318 13.2914Z" fill="white"/>
<path d="M13.3303 6.67576C13.4961 6.48738 13.6392 6.32915 13.7749 6.17092C14.453 5.39482 15.1312 4.62626 15.8093 3.85016C15.9901 3.64672 16.2011 3.5563 16.4272 3.74467C16.6532 3.94058 16.6005 4.16663 16.4196 4.37007C15.523 5.40235 14.6188 6.43464 13.7146 7.45939C13.4735 7.73065 13.2776 7.73065 13.0063 7.46692C12.5165 6.98469 12.0268 6.49492 11.537 6.00515C11.3486 5.81678 11.2507 5.59826 11.4616 5.37975C11.6877 5.14617 11.9137 5.23659 12.1097 5.44003C12.5165 5.83938 12.9084 6.24627 13.3303 6.67576Z" fill="white"/>
<path d="M14.1437 11.2495C11.0619 11.2495 8.55273 8.74036 8.55273 5.65858C8.55273 2.57679 11.0619 0.0751953 14.1437 0.0751953C17.2254 0.0751953 19.7346 2.58433 19.7346 5.66611C19.7346 8.7479 17.2254 11.2495 14.1437 11.2495ZM14.1437 0.828688C11.4763 0.828688 9.30623 2.99875 9.30623 5.66611C9.30623 8.33348 11.4763 10.5035 14.1437 10.5035C16.811 10.5035 18.9811 8.33348 18.9811 5.66611C18.9811 2.99875 16.811 0.828688 14.1437 0.828688Z" fill="white"/>
</svg>
