<svg width="21" height="20" viewBox="0 0 21 20" fill="none" xmlns="http://www.w3.org/2000/svg">
<path d="M20.56 13.6185C19.9835 13.8187 19.7834 13.6746 19.7834 13.0501C19.7834 12.3775 19.7834 11.705 19.7834 10.9444C19.6072 11.1126 19.5032 11.2006 19.3991 11.3047C17.5576 13.1381 15.7242 14.9796 13.8828 16.813C13.4344 17.2614 13.3223 17.2614 12.874 16.813C11.8972 15.8282 10.9205 14.8515 9.92768 13.8507C9.8236 13.9067 9.72752 13.9548 9.63945 14.0028C6.77321 15.8443 3.89096 17.6777 1.01672 19.5111C0.92865 19.5672 0.8646 19.6472 0.784538 19.7113C0.648432 19.7113 0.520332 19.7113 0.384225 19.7113C0.0319503 19.303 0.0559691 19.1108 0.504319 18.8226C3.53068 16.8931 6.55705 14.9796 9.5754 13.0421C9.90366 12.8339 10.1438 12.8579 10.4161 13.1381C11.3848 14.1309 12.3696 15.1077 13.3143 16.0524C15.2278 14.1389 17.1333 12.2414 19.0468 10.3199C18.7746 10.3199 18.4623 10.3199 18.1581 10.3199C17.7178 10.3199 17.2774 10.3279 16.8371 10.3119C16.5809 10.3039 16.3967 10.1758 16.3967 9.8956C16.3967 9.59937 16.5809 9.46327 16.8611 9.46327C17.966 9.45526 19.0708 9.45526 20.1837 9.47127C20.3118 9.47127 20.4479 9.56735 20.576 9.62339C20.56 10.9524 20.56 12.2895 20.56 13.6185Z" fill="white"/>
<path d="M1.00098 7.7829C1.025 3.15529 4.42765 -0.0792384 8.59891 0.0808867C12.618 0.233005 15.7885 3.77177 15.5003 7.82294C15.3402 10.0647 14.3234 11.8661 12.514 13.2031C12.3538 13.3232 12.0496 13.3793 11.8735 13.3152C11.5612 13.1951 11.6253 12.8188 11.9775 12.5546C13.1064 11.722 13.9311 10.6571 14.3394 9.3121C15.1 6.79013 14.5716 4.53236 12.6661 2.70694C10.7766 0.897525 8.48682 0.425156 6.03691 1.33787C3.587 2.25859 2.1859 4.10003 1.89768 6.71007C1.60145 9.45621 3.0746 11.9782 5.58055 13.1391C5.67663 13.1871 5.78071 13.2191 5.86878 13.2752C6.10096 13.3953 6.21305 13.5794 6.10096 13.8356C5.98887 14.0758 5.78872 14.1639 5.54052 14.0518C5.20426 13.8997 4.85198 13.7476 4.53974 13.5554C2.21793 12.1143 1.08104 10.0086 1.00098 7.7829Z" fill="white"/>
<path d="M8.69527 10.3525C8.69527 10.7609 8.69527 11.1292 8.69527 11.5055C8.69527 11.7937 8.57518 12.0179 8.25493 12.0098C7.94268 12.0018 7.83059 11.7857 7.83059 11.4894C7.83059 11.1212 7.83059 10.7449 7.83059 10.3205C7.47832 10.3205 7.15006 10.3205 6.82181 10.3205C6.50156 10.3205 6.1733 10.3285 6.14128 9.89619C6.11726 9.59996 6.33343 9.46386 6.80579 9.45585C7.40626 9.45585 8.00673 9.46386 8.6072 9.45585C9.17564 9.44784 9.54393 9.09557 9.53593 8.58317C9.52792 8.08678 9.17564 7.76653 8.6072 7.75852C8.34299 7.75052 8.07078 7.76653 7.80658 7.75052C6.90187 7.70248 6.21333 7.05397 6.14128 6.21332C6.06121 5.2926 6.62966 4.55602 7.54237 4.35587C7.62243 4.33985 7.70249 4.33185 7.83059 4.30783C7.83059 3.93154 7.83059 3.54724 7.83059 3.16294C7.83059 2.87471 7.91866 2.64253 8.23891 2.63452C8.58318 2.61851 8.68726 2.8667 8.68726 3.16294C8.68726 3.53122 8.68726 3.90752 8.68726 4.32384C9.07957 4.32384 9.43985 4.33185 9.79213 4.32384C10.1044 4.31584 10.3846 4.3959 10.3766 4.75618C10.3686 5.12447 10.0884 5.18852 9.77611 5.18051C9.15963 5.18051 8.55116 5.18051 7.93468 5.18051C7.35823 5.18051 6.97393 5.52478 6.96592 6.02117C6.95791 6.51756 7.35022 6.86983 7.91866 6.87784C8.17486 6.88584 8.42306 6.87784 8.67926 6.87784C9.58396 6.90185 10.2965 7.55837 10.3766 8.43105C10.4566 9.30373 9.8802 10.0643 8.9915 10.2645C8.91144 10.2965 8.82337 10.3205 8.69527 10.3525Z" fill="white"/>
</svg>
