<svg width="28" height="27" viewBox="0 0 28 27" fill="none" xmlns="http://www.w3.org/2000/svg">
<path d="M26.3045 11.9443C26.0099 11.9443 25.7606 11.9443 25.432 11.9443C25.432 8.8385 25.432 5.76707 25.432 2.54666C24.4915 3.48642 23.653 4.3345 22.8259 5.18259C22.7352 5.27427 22.7126 5.45764 22.7126 5.60663C22.7012 7.24548 22.7239 8.8958 22.7012 10.5347C22.6899 10.9129 22.8939 11.016 23.1545 11.165C25.9419 12.7465 27.5736 15.8638 27.211 18.9696C26.8258 22.3161 24.5935 25.0437 21.4322 25.8803C20.5143 26.121 19.5285 26.1325 18.5767 26.1783C18.3728 26.1898 18.0215 25.9376 17.9875 25.7657C17.9195 25.3761 18.2481 25.3073 18.5881 25.2844C21.6135 25.0781 23.7664 22.6714 23.6077 19.6916C23.5511 18.7519 23.2225 17.8007 22.7126 17.2162C22.7126 18.8321 22.7126 20.3907 22.7126 21.9494C22.7126 22.9923 22.7126 22.9923 21.6701 22.9923C14.7808 22.9923 7.89151 22.9923 0.990874 22.9923C0.0730558 22.9923 0.0503936 22.9694 0.0503936 22.0181C0.0503936 16.5171 0.0503936 11.016 0.0390625 5.51494C0.0390625 5.10236 0.152373 4.80439 0.446982 4.50641C1.50077 3.4635 2.52057 2.38621 3.58569 1.36622C3.80098 1.15993 4.16358 0.999484 4.46952 0.999484C11.4948 0.976563 18.5201 0.988023 25.5453 0.976562C26.0212 0.976562 26.3498 1.05679 26.3498 1.65274C26.3385 5.01068 26.3385 8.38008 26.3385 11.738C26.3498 11.7839 26.3272 11.8297 26.3045 11.9443ZM21.8174 22.0411C21.8174 20.0584 21.8174 18.133 21.8061 16.2076C21.8061 16.093 21.7381 15.944 21.6474 15.8753C20.7863 15.1762 19.8118 14.7865 18.6447 14.7407C18.6447 15.4283 18.6674 16.0701 18.6334 16.7234C18.622 16.964 18.5314 17.2735 18.3614 17.3995C18.2481 17.4798 17.8969 17.3652 17.7269 17.2391C15.7553 15.8294 13.7837 14.4083 11.8234 12.9872C11.2455 12.5746 11.2455 12.3225 11.8121 11.9099C13.7723 10.4888 15.7439 9.06771 17.7156 7.65806C17.8969 7.532 18.2368 7.40593 18.3501 7.48616C18.5201 7.60076 18.622 7.92166 18.6334 8.15087C18.6674 8.80412 18.6447 9.46883 18.6447 10.0648C19.7552 10.2023 20.775 10.3284 21.7721 10.4544C21.7721 8.8385 21.7721 7.23402 21.7721 5.60663C18.9053 5.60663 16.0839 5.60663 13.2058 5.60663C13.2058 6.62662 13.1945 7.61222 13.2058 8.59783C13.2058 9.02187 13.0471 9.23962 12.6052 9.23962C11.7894 9.22816 10.9849 9.22816 10.1691 9.23962C9.72714 9.23962 9.55717 9.02187 9.56851 8.59783C9.57984 8.08211 9.56851 7.56638 9.56851 7.05066C9.56851 6.56931 9.56851 6.07651 9.56851 5.60663C6.64509 5.60663 3.82365 5.60663 1.0022 5.60663C1.0022 11.1077 1.0022 16.5744 1.0022 22.0525C7.94816 22.0411 14.8375 22.0411 21.8174 22.0411ZM17.7382 8.73536C15.9819 10.0075 14.3389 11.1994 12.6279 12.4257C14.3502 13.6749 16.0046 14.8668 17.6476 16.0586C17.7042 15.9784 17.7156 15.967 17.7156 15.944C17.7269 15.4856 17.7269 15.0272 17.7269 14.5688C17.7382 13.8926 17.8289 13.778 18.4747 13.8009C20.8656 13.8811 22.6899 14.9814 23.8004 17.1016C24.9221 19.2561 24.7522 21.4107 23.4604 23.4622C23.3584 23.6226 23.2451 23.7831 23.1431 23.955C23.3584 23.932 23.4944 23.8518 23.6191 23.7487C25.8173 21.9035 26.7464 19.5427 26.1685 16.7119C25.5907 13.8926 23.823 12.0475 21.0696 11.2911C20.2311 11.0618 19.3132 11.0848 18.4294 11.0504C17.9308 11.0275 17.6929 10.867 17.7156 10.3398C17.7495 9.86995 17.7382 9.36569 17.7382 8.73536ZM12.5826 1.89341C10.441 1.89341 8.46939 2.00801 6.52044 1.85903C4.93409 1.73296 3.72167 2.14554 2.78119 3.44058C2.47525 3.85316 2.06733 4.17406 1.61408 4.63248C4.37887 4.63248 6.97369 4.63248 9.57984 4.62102C9.71581 4.62102 9.88578 4.57518 9.98776 4.48349C10.8149 3.66979 11.6308 2.83317 12.5826 1.89341ZM24.8088 1.89341C22.9618 1.89341 21.2848 1.89341 19.6078 1.89341C18.5881 1.89341 17.4663 1.64127 16.5938 1.99655C15.7439 2.35183 15.1434 3.33744 14.4295 4.04799C14.2709 4.20844 14.1123 4.38035 13.863 4.63248C16.6051 4.63248 19.2113 4.63248 21.8061 4.62102C21.9421 4.62102 22.1234 4.57518 22.214 4.48349C23.0525 3.66979 23.8683 2.83317 24.8088 1.89341ZM10.4863 8.26547C11.1209 8.26547 11.6874 8.26547 12.2993 8.26547C12.2993 7.29133 12.2653 6.36302 12.322 5.43472C12.3333 5.12528 12.4806 4.77001 12.6846 4.55225C13.3984 3.77294 14.1689 3.028 14.9054 2.2716C14.9961 2.17992 15.0754 2.06532 15.1547 1.95071C15.1321 1.89341 15.0981 1.82464 15.0754 1.76734C14.5768 1.90487 13.9423 1.88195 13.591 2.19138C12.5826 3.07384 11.6648 4.07091 10.7356 5.04506C10.611 5.18259 10.4977 5.40034 10.4977 5.5837C10.475 6.45471 10.4863 7.32571 10.4863 8.26547Z" fill="#EE0000"/>
</svg>
