<svg width="22" height="20" viewBox="0 0 22 20" fill="none" xmlns="http://www.w3.org/2000/svg">
<path d="M21.1524 8.62062C20.9203 8.62062 20.7238 8.62062 20.4649 8.62062C20.4649 6.20075 20.4649 3.80768 20.4649 1.29852C19.7237 2.03073 19.0629 2.69151 18.4111 3.35228C18.3397 3.42372 18.3218 3.56659 18.3218 3.68267C18.3129 4.95957 18.3307 6.2454 18.3129 7.5223C18.3039 7.81697 18.4647 7.89734 18.6701 8.01342C20.8667 9.24568 22.1525 11.6745 21.8668 14.0943C21.5632 16.7017 19.8041 18.8269 17.3128 19.4788C16.5895 19.6663 15.8126 19.6752 15.0626 19.7109C14.9019 19.7198 14.625 19.5234 14.5983 19.3895C14.5447 19.0859 14.8036 19.0323 15.0715 19.0144C17.4557 18.8537 19.1522 16.9785 19.0272 14.6569C18.9826 13.9247 18.7236 13.1835 18.3218 12.7281C18.3218 13.9872 18.3218 15.2016 18.3218 16.416C18.3218 17.2285 18.3218 17.2285 17.5003 17.2285C12.0712 17.2285 6.64217 17.2285 1.20417 17.2285C0.48089 17.2285 0.463031 17.2107 0.463031 16.4695C0.463031 12.1834 0.463031 7.89734 0.454102 3.61123C0.454102 3.28977 0.543395 3.05761 0.77556 2.82545C1.60599 2.01287 2.40964 1.17351 3.249 0.378794C3.41866 0.218066 3.7044 0.0930541 3.94549 0.0930541C9.48171 0.0751953 15.0179 0.0841247 20.5542 0.0751953C20.9292 0.0751953 21.1881 0.137701 21.1881 0.602029C21.1792 3.21834 21.1792 5.84358 21.1792 8.45989C21.1881 8.49561 21.1703 8.53132 21.1524 8.62062ZM17.6164 16.4874C17.6164 14.9426 17.6164 13.4425 17.6075 11.9423C17.6075 11.8531 17.5539 11.737 17.4824 11.6834C16.8038 11.1387 16.0359 10.8351 15.1162 10.7994C15.1162 11.3352 15.134 11.8352 15.1072 12.3442C15.0983 12.5317 15.0269 12.7728 14.8929 12.871C14.8036 12.9335 14.5268 12.8442 14.3929 12.746C12.8392 11.6477 11.2854 10.5404 9.74067 9.43319C9.28527 9.11173 9.28527 8.91529 9.73174 8.59383C11.2765 7.48659 12.8302 6.37934 14.3839 5.28103C14.5268 5.1828 14.7947 5.08458 14.884 5.14709C15.0179 5.23638 15.0983 5.4864 15.1072 5.66499C15.134 6.17397 15.1162 6.69187 15.1162 7.1562C15.9912 7.26335 16.7949 7.36157 17.5807 7.4598C17.5807 6.20075 17.5807 4.95064 17.5807 3.68267C15.3215 3.68267 13.0981 3.68267 10.8301 3.68267C10.8301 4.47738 10.8211 5.24531 10.8301 6.01324C10.8301 6.34362 10.705 6.51328 10.3568 6.51328C9.71388 6.50435 9.07989 6.50435 8.43698 6.51328C8.08873 6.51328 7.95479 6.34362 7.96372 6.01324C7.97265 5.61141 7.96372 5.20959 7.96372 4.80777C7.96372 4.43274 7.96372 4.04877 7.96372 3.68267C5.65993 3.68267 3.43652 3.68267 1.2131 3.68267C1.2131 7.96877 1.2131 12.2281 1.2131 16.4963C6.68681 16.4874 12.1159 16.4874 17.6164 16.4874ZM14.4018 6.12039C13.0178 7.11155 11.723 8.04021 10.3747 8.99565C11.7319 9.96896 13.0356 10.8976 14.3304 11.8263C14.375 11.7638 14.3839 11.7548 14.3839 11.737C14.3929 11.3798 14.3929 11.0226 14.3929 10.6654C14.4018 10.1386 14.4732 10.0493 14.9822 10.0672C16.8663 10.1297 18.3039 10.9869 19.179 12.6388C20.063 14.3176 19.9291 15.9963 18.9111 17.5947C18.8308 17.7197 18.7415 17.8447 18.6611 17.9786C18.8308 17.9608 18.9379 17.8982 19.0362 17.8179C20.7685 16.3803 21.5007 14.5408 21.0453 12.3352C20.5899 10.1386 19.1969 8.70098 17.027 8.11164C16.3663 7.93305 15.643 7.95091 14.9465 7.92413C14.5536 7.90627 14.3661 7.78126 14.3839 7.3705C14.4107 7.0044 14.4018 6.61151 14.4018 6.12039ZM10.3389 0.789546C8.65128 0.789546 7.09757 0.87884 5.56171 0.762758C4.3116 0.664535 3.35615 0.985993 2.61501 1.99501C2.37392 2.31647 2.05246 2.56649 1.69529 2.92367C3.87406 2.92367 5.91889 2.92367 7.97265 2.91474C8.0798 2.91474 8.21374 2.87902 8.2941 2.80759C8.94595 2.1736 9.58887 1.52176 10.3389 0.789546ZM19.9737 0.789546C18.5183 0.789546 17.1967 0.789546 15.8752 0.789546C15.0715 0.789546 14.1875 0.5931 13.4999 0.869911C12.8302 1.14672 12.357 1.91465 11.7944 2.46827C11.6694 2.59328 11.5444 2.72722 11.348 2.92367C13.5089 2.92367 15.5626 2.92367 17.6075 2.91474C17.7146 2.91474 17.8575 2.87902 17.9289 2.80759C18.5897 2.1736 19.2326 1.52176 19.9737 0.789546ZM8.687 5.75428C9.18704 5.75428 9.63351 5.75428 10.1157 5.75428C10.1157 4.99529 10.0889 4.27201 10.1336 3.54873C10.1425 3.30763 10.2586 3.03082 10.4193 2.86116C10.9819 2.25397 11.589 1.67356 12.1695 1.08422C12.2409 1.01278 12.3034 0.923487 12.3659 0.834193C12.348 0.789546 12.3213 0.73597 12.3034 0.691323C11.9105 0.798476 11.4105 0.780617 11.1336 1.02171C10.3389 1.70927 9.61565 2.48613 8.88344 3.24513C8.78522 3.35228 8.69593 3.52194 8.69593 3.66481C8.67807 4.34344 8.687 5.02208 8.687 5.75428Z" fill="white"/>
<path d="M1.90918 14.3276C1.90918 14.0955 1.90918 13.9079 1.90918 13.6758C3.32002 13.6758 4.71301 13.6758 6.15064 13.6758C6.15064 13.8722 6.15064 14.0865 6.15064 14.3276C4.74873 14.3276 3.35574 14.3276 1.90918 14.3276Z" fill="white"/>
<path d="M6.17603 15.0947C6.17603 15.3358 6.17603 15.5233 6.17603 15.7466C4.76519 15.7466 3.36327 15.7466 1.93457 15.7466C1.93457 15.5412 1.93457 15.3269 1.93457 15.0947C3.33648 15.0947 4.7384 15.0947 6.17603 15.0947Z" fill="white"/>
</svg>
