<svg width="22" height="21" viewBox="0 0 22 21" fill="none" xmlns="http://www.w3.org/2000/svg">
<path d="M21.2266 9.25929C20.9945 9.25929 20.798 9.25929 20.5391 9.25929C20.5391 6.83943 20.5391 4.44635 20.5391 1.93719C19.7979 2.6694 19.1372 3.33018 18.4853 3.99095C18.4139 4.06239 18.396 4.20526 18.396 4.32134C18.3871 5.59824 18.405 6.88407 18.3871 8.16098C18.3782 8.45565 18.5389 8.53601 18.7443 8.65209C20.9409 9.88435 22.2267 12.3131 21.941 14.733C21.6374 17.3404 19.8783 19.4656 17.387 20.1174C16.6637 20.3049 15.8869 20.3139 15.1368 20.3496C14.9761 20.3585 14.6993 20.1621 14.6725 20.0281C14.6189 19.7245 14.8778 19.671 15.1457 19.6531C17.5299 19.4924 19.2265 17.6172 19.1014 15.2956C19.0568 14.5633 18.7978 13.8222 18.396 13.3668C18.396 14.6259 18.396 15.8402 18.396 17.0546C18.396 17.8672 18.396 17.8672 17.5745 17.8672C12.1455 17.8672 6.71639 17.8672 1.27839 17.8672C0.555108 17.8672 0.53725 17.8494 0.53725 17.1082C0.53725 12.8221 0.53725 8.53601 0.52832 4.2499C0.52832 3.92845 0.617614 3.69628 0.849778 3.46412C1.68021 2.65154 2.48386 1.81218 3.32322 1.01747C3.49288 0.856737 3.77862 0.731726 4.01971 0.731726C9.55593 0.713867 15.0922 0.722797 20.6284 0.713867C21.0034 0.713867 21.2624 0.776373 21.2624 1.2407C21.2534 3.85701 21.2534 6.48225 21.2534 9.09856C21.2624 9.13428 21.2445 9.17 21.2266 9.25929ZM17.6906 17.1261C17.6906 15.5813 17.6906 14.0812 17.6817 12.581C17.6817 12.4917 17.6281 12.3756 17.5567 12.3221C16.878 11.7774 16.1101 11.4738 15.1904 11.4381C15.1904 11.9738 15.2082 12.4739 15.1814 12.9828C15.1725 13.1704 15.1011 13.4115 14.9671 13.5097C14.8778 13.5722 14.601 13.4829 14.4671 13.3847C12.9134 12.2864 11.3597 11.1791 9.81488 10.0719C9.35949 9.75041 9.35949 9.55396 9.80595 9.2325C11.3507 8.12526 12.9045 7.01801 14.4582 5.9197C14.601 5.82148 14.8689 5.72325 14.9582 5.78576C15.0922 5.87505 15.1725 6.12508 15.1814 6.30366C15.2082 6.81264 15.1904 7.33054 15.1904 7.79487C16.0655 7.90202 16.8691 8.00025 17.6549 8.09847C17.6549 6.83943 17.6549 5.58931 17.6549 4.32134C15.3958 4.32134 13.1723 4.32134 10.9043 4.32134C10.9043 5.11605 10.8953 5.88398 10.9043 6.65191C10.9043 6.9823 10.7793 7.15195 10.431 7.15195C9.7881 7.14302 9.15411 7.14302 8.51119 7.15195C8.16295 7.15195 8.02901 6.9823 8.03794 6.65191C8.04686 6.25009 8.03794 5.84826 8.03794 5.44644C8.03794 5.07141 8.03794 4.68744 8.03794 4.32134C5.73415 4.32134 3.51074 4.32134 1.28732 4.32134C1.28732 8.60744 1.28732 12.8668 1.28732 17.135C6.76103 17.1261 12.1901 17.1261 17.6906 17.1261ZM14.476 6.75906C13.092 7.75022 11.7972 8.67888 10.4489 9.63432C11.8061 10.6076 13.1098 11.5363 14.4046 12.4649C14.4492 12.4024 14.4582 12.3935 14.4582 12.3756C14.4671 12.0185 14.4671 11.6613 14.4671 11.3041C14.476 10.7773 14.5475 10.688 15.0564 10.7059C16.9405 10.7684 18.3782 11.6256 19.2532 13.2775C20.1373 14.9562 20.0033 16.635 18.9854 18.2333C18.905 18.3583 18.8157 18.4833 18.7353 18.6173C18.905 18.5994 19.0122 18.5369 19.1104 18.4566C20.8427 17.0189 21.5749 15.1795 21.1195 12.9739C20.6641 10.7773 19.2711 9.33965 17.1013 8.75031C16.4405 8.57173 15.7172 8.58959 15.0207 8.5628C14.6278 8.54494 14.4403 8.41993 14.4582 8.00918C14.485 7.64307 14.476 7.25018 14.476 6.75906ZM10.4132 1.42822C8.7255 1.42822 7.17178 1.51751 5.63593 1.40143C4.38582 1.30321 3.43037 1.62466 2.68923 2.63369C2.44814 2.95514 2.12668 3.20517 1.76951 3.56234C3.94828 3.56234 5.99311 3.56234 8.04686 3.55341C8.15402 3.55341 8.28796 3.51769 8.36832 3.44626C9.02017 2.81227 9.66308 2.16043 10.4132 1.42822ZM20.048 1.42822C18.5925 1.42822 17.2709 1.42822 15.9494 1.42822C15.1457 1.42822 14.2617 1.23177 13.5742 1.50858C12.9045 1.78539 12.4312 2.55332 11.8686 3.10694C11.7436 3.23195 11.6186 3.36589 11.4222 3.56234C13.5831 3.56234 15.6368 3.56234 17.6817 3.55341C17.7888 3.55341 17.9317 3.51769 18.0031 3.44626C18.6639 2.81227 19.3068 2.16043 20.048 1.42822ZM8.76122 6.39296C9.26126 6.39296 9.70773 6.39296 10.1899 6.39296C10.1899 5.63396 10.1631 4.91068 10.2078 4.1874C10.2167 3.94631 10.3328 3.66949 10.4935 3.49984C11.0561 2.89264 11.6633 2.31223 12.2437 1.72289C12.3151 1.65145 12.3776 1.56216 12.4401 1.47286C12.4223 1.42822 12.3955 1.37464 12.3776 1.32999C11.9847 1.43715 11.4847 1.41929 11.2079 1.66038C10.4132 2.34794 9.68987 3.1248 8.95766 3.8838C8.85944 3.99095 8.77015 4.16061 8.77015 4.30348C8.75229 4.98211 8.76122 5.66075 8.76122 6.39296Z" fill="#00B9A7"/>
<path d="M1.9834 14.9663C1.9834 14.7341 1.9834 14.5466 1.9834 14.3145C3.39424 14.3145 4.78723 14.3145 6.22486 14.3145C6.22486 14.5109 6.22486 14.7252 6.22486 14.9663C4.82294 14.9663 3.42996 14.9663 1.9834 14.9663Z" fill="#00B9A7"/>
<path d="M6.25025 15.7334C6.25025 15.9745 6.25025 16.162 6.25025 16.3852C4.83941 16.3852 3.43749 16.3852 2.00879 16.3852C2.00879 16.1799 2.00879 15.9656 2.00879 15.7334C3.4107 15.7334 4.81262 15.7334 6.25025 15.7334Z" fill="#00B9A7"/>
</svg>
