<svg width="30" height="30" viewBox="0 0 30 30" fill="none" xmlns="http://www.w3.org/2000/svg">
<path d="M19.9266 15.3376C19.9266 18.0128 17.7447 20.1948 15.0695 20.1948C12.3943 20.1948 10.2123 18.0128 10.2123 15.3376C10.2123 12.6624 12.3943 10.4805 15.0695 10.4805C17.7447 10.4805 19.9266 12.6624 19.9266 15.3376ZM29.6409 13.2695C29.6409 12.947 29.4132 12.6434 29.0907 12.5865L25.6186 12.0552C25.4289 11.4291 25.1632 10.803 24.8407 10.1959C25.4858 9.30413 26.1878 8.46931 26.8329 7.59654C26.9277 7.46373 26.9847 7.33091 26.9847 7.16016C26.9847 7.00837 26.9467 6.85658 26.8518 6.74274C26.055 5.62332 24.7268 4.44699 23.7213 3.5173C23.5884 3.40346 23.4177 3.32757 23.2469 3.32757C23.0762 3.32757 22.9054 3.38449 22.7916 3.49832L20.0974 5.52846C19.5472 5.24386 18.978 5.01618 18.3898 4.82645L17.8585 1.33538C17.8206 1.01283 17.517 0.766182 17.1755 0.766182H12.9634C12.6219 0.766182 12.3563 0.993861 12.2804 1.29743C11.9768 2.43582 11.863 3.66908 11.7302 4.82645C11.142 5.01618 10.5539 5.26283 10.0036 5.54743L7.38532 3.5173C7.23354 3.40346 7.06278 3.32757 6.89202 3.32757C6.24693 3.32757 3.68555 6.09766 3.23019 6.72377C3.13532 6.85658 3.05943 6.9894 3.05943 7.16016C3.05943 7.33091 3.13532 7.4827 3.24916 7.61551C3.95117 8.46931 4.63421 9.3231 5.2793 10.2338C4.97573 10.803 4.72907 11.3722 4.53934 11.9794L1.01032 12.5106C0.725725 12.5675 0.498047 12.909 0.498047 13.1936V17.4057C0.498047 17.7282 0.725725 18.0318 1.04827 18.0887L4.52037 18.601C4.7101 19.2461 4.97573 19.8722 5.29827 20.4794C4.65318 21.3711 3.95117 22.2059 3.30608 23.0787C3.21122 23.2115 3.1543 23.3443 3.1543 23.5151C3.1543 23.6669 3.19224 23.8186 3.28711 23.9515C4.08398 25.0519 5.41211 26.2282 6.41769 27.139C6.5505 27.2718 6.72126 27.3477 6.89202 27.3477C7.06278 27.3477 7.23354 27.2907 7.36635 27.1769L10.0416 25.1468C10.5918 25.4314 11.161 25.659 11.7492 25.8488L12.2804 29.3398C12.3184 29.6624 12.6219 29.909 12.9634 29.909H17.1755C17.517 29.909 17.7826 29.6814 17.8585 29.3778C18.1621 28.2394 18.2759 27.0061 18.4088 25.8488C18.9969 25.659 19.5851 25.4124 20.1353 25.1278L22.7536 27.1769C22.9054 27.2718 23.0762 27.3477 23.2469 27.3477C23.892 27.3477 26.4534 24.5586 26.9088 23.9515C27.0226 23.8186 27.0795 23.6858 27.0795 23.5151C27.0795 23.3443 27.0036 23.1735 26.8898 23.0407C26.1878 22.1869 25.5047 21.3521 24.8597 20.4224C25.1632 19.8722 25.3909 19.303 25.5996 18.6959L29.1097 18.1646C29.4132 18.1077 29.6409 17.7662 29.6409 17.4816V13.2695Z" fill="#3C3C4C"/>
</svg>
