<svg width="38" height="34" viewBox="0 0 38 34" fill="none" xmlns="http://www.w3.org/2000/svg">
<path d="M17.998 17.111C17.998 19.7863 15.8161 21.9682 13.1409 21.9682C10.4657 21.9682 8.28376 19.7863 8.28376 17.111C8.28376 14.4358 10.4657 12.2539 13.1409 12.2539C15.8161 12.2539 17.998 14.4358 17.998 17.111ZM32.5695 26.8253C32.5695 28.1535 31.488 29.2539 30.1409 29.2539C28.8128 29.2539 27.7123 28.1724 27.7123 26.8253C27.7123 25.4972 28.8128 24.3968 30.1409 24.3968C31.469 24.3968 32.5695 25.4972 32.5695 26.8253ZM32.5695 7.39676C32.5695 8.72489 31.488 9.82533 30.1409 9.82533C28.8128 9.82533 27.7123 8.74386 27.7123 7.39676C27.7123 6.06864 28.8128 4.96819 30.1409 4.96819C31.469 4.96819 32.5695 6.06864 32.5695 7.39676ZM25.2838 15.3845C25.2838 15.1189 25.094 14.8722 24.8284 14.8153L21.9445 14.3789C21.7737 13.8477 21.546 13.3354 21.2994 12.8231C21.8306 12.0831 22.3998 11.4001 22.9501 10.6602C23.0259 10.5463 23.0829 10.4325 23.0829 10.2997C23.0829 9.76841 20.844 7.71931 20.3507 7.26395C20.2369 7.16908 20.1041 7.11216 19.9523 7.11216C19.8195 7.11216 19.6867 7.15011 19.5728 7.24498L17.334 8.93359C16.8786 8.70591 16.4043 8.49721 15.911 8.34542L15.4746 5.44252C15.4367 5.1769 15.171 4.96819 14.9054 4.96819H11.3764C11.1108 4.96819 10.8831 5.15792 10.8072 5.42355C10.5605 6.35324 10.4657 7.39676 10.3708 8.34542C9.85854 8.51618 9.38421 8.70591 8.90988 8.95257L6.72796 7.24498C6.61412 7.16908 6.48131 7.11216 6.32952 7.11216C5.7793 7.11216 3.6543 9.40792 3.27483 9.9202C3.17997 10.034 3.14202 10.1669 3.14202 10.2997C3.14202 10.4325 3.19894 10.5653 3.27483 10.6791C3.88198 11.4001 4.45117 12.1021 4.98242 12.861C4.73577 13.3354 4.52706 13.8097 4.37528 14.303L1.43443 14.7584C1.18778 14.7963 0.998047 15.0809 0.998047 15.3276V18.8376C0.998047 19.1032 1.18778 19.3499 1.4534 19.3878L4.33733 19.8432C4.50809 20.3744 4.73577 20.8867 5.0014 21.399C4.45117 22.139 3.88198 22.841 3.33175 23.5619C3.25586 23.6758 3.19894 23.7896 3.19894 23.9224C3.19894 24.4727 5.43778 26.5028 5.93108 26.9581C6.04492 27.053 6.17773 27.1099 6.32952 27.1099C6.46233 27.1099 6.61412 27.072 6.70898 26.9771L8.94782 25.2885C9.40318 25.5162 9.87751 25.7249 10.3708 25.8767L10.8072 28.7796C10.8451 29.0452 11.1108 29.2539 11.3764 29.2539H14.9054C15.171 29.2539 15.3987 29.0642 15.4746 28.7985C15.7213 27.8689 15.8161 26.8253 15.911 25.8577C16.4233 25.7059 16.8976 25.5162 17.3719 25.2695L19.5539 26.9771C19.6677 27.053 19.8005 27.1099 19.9523 27.1099C20.5025 27.1099 22.6275 24.7952 23.007 24.2829C23.1018 24.1881 23.1398 24.0552 23.1398 23.9224C23.1398 23.7706 23.0829 23.6568 23.007 23.543C22.3998 22.822 21.8306 22.12 21.2994 21.361C21.546 20.8867 21.7547 20.4124 21.9065 19.9191L24.8474 19.4637C25.094 19.4258 25.2838 19.1412 25.2838 18.8945V15.3845ZM37.4266 25.4972C37.4266 25.2126 34.9791 24.947 34.5996 24.909C34.4478 24.5675 34.2581 24.226 34.0304 23.9224C34.2012 23.543 34.998 21.6456 34.998 21.3041C34.998 21.2662 34.9791 21.2093 34.9222 21.1713C34.6945 21.0385 32.6643 19.8432 32.5695 19.8432L32.4556 19.8811C31.8105 20.5262 31.2414 21.2662 30.7101 22.0061C30.5204 21.9872 30.3306 21.9682 30.1409 21.9682C29.9512 21.9682 29.7614 21.9872 29.5717 22.0061C29.382 21.7215 27.959 19.8432 27.7123 19.8432C27.6175 19.8432 25.5873 21.0575 25.3597 21.1713C25.3027 21.2093 25.2838 21.2662 25.2838 21.3041C25.2838 21.6267 26.0806 23.543 26.2514 23.9224C26.0237 24.226 25.834 24.5675 25.6822 24.909C25.3027 24.947 22.8552 25.2126 22.8552 25.4972V28.1535C22.8552 28.4381 25.3027 28.7037 25.6822 28.7416C25.834 29.1021 26.0237 29.4247 26.2514 29.7282C26.0806 30.1077 25.2838 32.024 25.2838 32.3465C25.2838 32.3845 25.3027 32.4414 25.3597 32.4794C25.5873 32.6122 27.6175 33.8265 27.7123 33.8265C27.959 33.8265 29.382 31.9291 29.5717 31.6445C29.7614 31.6635 29.9512 31.6825 30.1409 31.6825C30.3306 31.6825 30.5204 31.6635 30.7101 31.6445C30.8998 31.9291 32.3228 33.8265 32.5695 33.8265C32.6643 33.8265 34.6945 32.6122 34.9222 32.4794C34.9791 32.4414 34.998 32.4035 34.998 32.3465C34.998 32.005 34.2012 30.1077 34.0304 29.7282C34.2581 29.4247 34.4478 29.1021 34.5996 28.7416C34.9791 28.7037 37.4266 28.4381 37.4266 28.1535V25.4972ZM37.4266 6.06864C37.4266 5.78404 34.9791 5.51841 34.5996 5.48047C34.4478 5.13895 34.2581 4.79743 34.0304 4.49386C34.2012 4.1144 34.998 2.21707 34.998 1.87556C34.998 1.83761 34.9791 1.78069 34.9222 1.74274C34.6945 1.60993 32.6643 0.414619 32.5695 0.414619L32.4556 0.452566C31.8105 1.09765 31.2414 1.83761 30.7101 2.57757C30.5204 2.55859 30.3306 2.53962 30.1409 2.53962C29.9512 2.53962 29.7614 2.55859 29.5717 2.57757C29.382 2.29297 27.959 0.414619 27.7123 0.414619C27.6175 0.414619 25.5873 1.6289 25.3597 1.74274C25.3027 1.78069 25.2838 1.83761 25.2838 1.87556C25.2838 2.1981 26.0806 4.1144 26.2514 4.49386C26.0237 4.79743 25.834 5.13895 25.6822 5.48047C25.3027 5.51841 22.8552 5.78404 22.8552 6.06864V8.72489C22.8552 9.00949 25.3027 9.27511 25.6822 9.31306C25.834 9.67355 26.0237 9.99609 26.2514 10.2997C26.0806 10.6791 25.2838 12.5954 25.2838 12.918C25.2838 12.9559 25.3027 13.0128 25.3597 13.0508C25.5873 13.1836 27.6175 14.3979 27.7123 14.3979C27.959 14.3979 29.382 12.5006 29.5717 12.216C29.7614 12.2349 29.9512 12.2539 30.1409 12.2539C30.3306 12.2539 30.5204 12.2349 30.7101 12.216C30.8998 12.5006 32.3228 14.3979 32.5695 14.3979C32.6643 14.3979 34.6945 13.1836 34.9222 13.0508C34.9791 13.0128 34.998 12.9749 34.998 12.918C34.998 12.5765 34.2012 10.6791 34.0304 10.2997C34.2581 9.99609 34.4478 9.67355 34.5996 9.31306C34.9791 9.27511 37.4266 9.00949 37.4266 8.72489V6.06864Z" fill="#3C3C4C"/>
</svg>
