<svg width="53" height="39" viewBox="0 0 53 39" fill="none" xmlns="http://www.w3.org/2000/svg">
<path d="M35.0748 20.6523C35.0748 21.1077 34.6998 21.5095 34.2176 21.5095H28.2176V30.9381C28.2176 31.3934 27.8159 31.7952 27.3605 31.7952H22.2176C21.7623 31.7952 21.3605 31.3934 21.3605 30.9381V21.5095H15.3605C14.8783 21.5095 14.5033 21.1345 14.5033 20.6523C14.5033 20.4113 14.6105 20.197 14.7712 20.0095L24.173 10.6077C24.3337 10.447 24.5748 10.3666 24.7891 10.3666C25.0301 10.3666 25.2444 10.447 25.4051 10.6077L34.8337 20.0363C34.9944 20.197 35.0748 20.4381 35.0748 20.6523ZM52.2176 28.3666C52.2176 23.5988 48.923 19.447 44.2623 18.3488C44.9855 17.2506 45.3605 15.9648 45.3605 14.6523C45.3605 10.8756 42.2801 7.7952 38.5034 7.7952C36.8694 7.7952 35.2891 8.38449 34.0569 9.45591C31.9409 4.31306 26.9319 0.938056 21.3605 0.938056C13.7801 0.938056 7.64621 7.07199 7.64621 14.6523C7.64621 15.0273 7.67299 15.4023 7.69978 15.8041C3.49442 17.7595 0.789062 21.9916 0.789062 26.6523C0.789062 33.2684 6.17299 38.6523 12.7891 38.6523H41.9319C47.6105 38.6523 52.2176 34.0452 52.2176 28.3666Z" fill="#BDBEC7"/>
</svg>
