<svg width="31" height="29" viewBox="0 0 31 29" fill="none" xmlns="http://www.w3.org/2000/svg">
<path d="M9.76367 14.9043C8.95117 13.7324 8.49805 12.3262 8.49805 10.9043C8.49805 10.5605 8.5293 10.2168 8.57617 9.87305C7.9043 10.1074 7.2168 10.2324 6.49805 10.2324C4.38867 10.2324 2.76367 8.9043 2.43555 8.9043C0.451172 8.9043 0.498047 13.1543 0.498047 14.4199C0.498047 16.1543 1.9668 16.9043 3.5293 16.9043H5.62305C6.66992 15.6543 8.13867 14.9512 9.76367 14.9043ZM26.498 24.8574C26.498 21.3262 25.6699 15.9043 21.0918 15.9043C20.5605 15.9043 18.623 18.0762 15.498 18.0762C12.373 18.0762 10.4355 15.9043 9.9043 15.9043C5.32617 15.9043 4.49805 21.3262 4.49805 24.8574C4.49805 27.3887 6.16992 28.9043 8.66992 28.9043H22.3262C24.8262 28.9043 26.498 27.3887 26.498 24.8574ZM10.498 4.9043C10.498 2.70117 8.70117 0.904295 6.49805 0.904295C4.29492 0.904295 2.49805 2.70117 2.49805 4.9043C2.49805 7.10742 4.29492 8.9043 6.49805 8.9043C8.70117 8.9043 10.498 7.10742 10.498 4.9043ZM21.498 10.9043C21.498 7.5918 18.8105 4.9043 15.498 4.9043C12.1855 4.9043 9.49805 7.5918 9.49805 10.9043C9.49805 14.2168 12.1855 16.9043 15.498 16.9043C18.8105 16.9043 21.498 14.2168 21.498 10.9043ZM30.498 14.4199C30.498 13.1543 30.5449 8.9043 28.5605 8.9043C28.2324 8.9043 26.6074 10.2324 24.498 10.2324C23.7793 10.2324 23.0918 10.1074 22.4199 9.87305C22.4668 10.2168 22.498 10.5605 22.498 10.9043C22.498 12.3262 22.0449 13.7324 21.2324 14.9043C22.8574 14.9512 24.3262 15.6543 25.373 16.9043H27.4668C29.0293 16.9043 30.498 16.1543 30.498 14.4199ZM28.498 4.9043C28.498 2.70117 26.7012 0.904295 24.498 0.904295C22.2949 0.904295 20.498 2.70117 20.498 4.9043C20.498 7.10742 22.2949 8.9043 24.498 8.9043C26.7012 8.9043 28.498 7.10742 28.498 4.9043Z" fill="#3C3C4C"/>
</svg>
